<svg width="535" height="535" viewBox="0 0 535 535" fill="none" xmlns="http://www.w3.org/2000/svg">
<path d="M216.956 80.3369C216.956 80.3369 281.988 36.8329 337.481 75.3785" stroke="#FFD274" stroke-width="0.00256223" stroke-miterlimit="2.28659" stroke-linecap="round" stroke-linejoin="round"/>
<path d="M225.46 107.495C242.537 98.2448 288.803 77.9676 331.524 101.782" stroke="#FFD274" stroke-width="0.00256223" stroke-miterlimit="2.28659" stroke-linecap="round" stroke-linejoin="round"/>
<path fill-rule="evenodd" clip-rule="evenodd" d="M336.246 72.9451C336.399 72.282 337.059 71.868 337.722 72.0218L340.118 72.578C340.779 72.7313 341.193 73.3943 341.04 74.0574L325.191 142.705C325.038 143.369 324.376 143.782 323.715 143.629L321.318 143.073C320.656 142.919 320.244 142.256 320.397 141.593L336.246 72.9451Z" fill="#FFD274"/>
<path fill-rule="evenodd" clip-rule="evenodd" d="M218.98 77.7605C218.811 77.1013 218.141 76.7039 217.482 76.8742L215.099 77.4899C214.443 77.6596 214.046 78.3327 214.215 78.9918L231.76 147.224C231.929 147.883 232.601 148.28 233.258 148.11L235.64 147.495C236.299 147.324 236.694 146.652 236.524 145.993L218.98 77.7605Z" fill="#FFD274"/>
<path fill-rule="evenodd" clip-rule="evenodd" d="M146.714 89.5992C146.714 89.5992 149.32 84.4963 153.238 86.8615C153.238 86.8615 154.861 85.705 155.661 85.1357C155.723 85.0911 155.807 85.0916 155.87 85.137C155.932 85.1824 155.958 85.2624 155.935 85.3359C155.658 86.2228 155.115 87.9584 155.115 87.9584C155.115 87.9584 158.622 96.8316 153.247 103.31C151.695 105.18 142.35 114.623 133.494 104.898C133.033 104.392 132.824 103.704 132.922 103.026C133.111 101.71 133.65 99.5124 135.155 98.2297L138.067 99.9226C136.956 98.6976 135.903 97.4277 135.155 95.9221C135.155 95.9221 133.034 87.3077 139.077 81.2212C139.188 81.1109 139.344 81.0597 139.498 81.0838C139.653 81.1079 139.787 81.2039 139.859 81.3428C140.807 83.182 143.881 88.7468 146.714 89.5992Z" fill="#69BAC9"/>
<path fill-rule="evenodd" clip-rule="evenodd" d="M134.951 89.8837C135.662 91.3818 137.325 94.4779 139.638 96.2623C139.857 96.4311 139.898 96.7463 139.73 96.9657C139.561 97.1849 139.247 97.226 139.028 97.0573C137.198 95.6452 135.732 93.4189 134.802 91.7527C134.821 91.0889 134.878 90.4846 134.951 89.8837ZM135.981 85.8754C136.326 86.7887 138.13 91.3056 140.946 93.7336C141.155 93.9141 141.179 94.2308 140.999 94.4407C140.819 94.6506 140.503 94.6744 140.294 94.4941C137.961 92.4835 136.279 89.1191 135.487 87.3033C135.634 86.7923 135.8 86.3168 135.981 85.8754ZM137.906 82.5703C137.917 82.5919 137.927 82.6149 137.935 82.6388C137.935 82.6388 139.658 87.9443 142.841 90.772C143.047 90.9555 143.066 91.2728 142.883 91.4799C142.7 91.687 142.384 91.7063 142.177 91.5228C139.501 89.145 137.792 85.1134 137.208 83.5736C137.457 83.1862 137.691 82.8554 137.906 82.5703Z" fill="white"/>
<path fill-rule="evenodd" clip-rule="evenodd" d="M146.714 89.5993L147.259 88.7302C147.259 88.7302 148.311 89.3714 149.204 89.5005C149.477 89.5401 149.667 89.7947 149.628 90.0685C149.588 90.3426 149.335 90.5329 149.061 90.4933C148.086 90.3524 146.714 89.5993 146.714 89.5993Z" fill="black"/>
<path fill-rule="evenodd" clip-rule="evenodd" d="M135.45 98.4016C135.45 98.4016 138.04 102.27 142.049 103.086C142.32 103.141 142.597 103.117 142.724 102.871C142.85 102.625 142.773 102.276 142.509 102.195C139.343 101.231 138.035 99.8872 138.035 99.8872L135.45 98.4016Z" fill="black"/>
<path fill-rule="evenodd" clip-rule="evenodd" d="M411.671 134.669C411.671 134.669 409.065 129.567 405.147 131.932C405.147 131.932 403.523 130.775 402.724 130.206C402.661 130.161 402.577 130.162 402.515 130.207C402.453 130.253 402.426 130.333 402.449 130.406C402.727 131.293 403.27 133.029 403.27 133.029C403.27 133.029 399.763 141.902 405.138 148.38C406.69 150.251 416.035 159.693 424.891 149.969C425.351 149.462 425.561 148.775 425.462 148.096C425.274 146.781 424.735 144.583 423.23 143.3L420.317 144.993C421.428 143.768 422.481 142.498 423.23 140.992C423.23 140.992 425.351 132.378 419.308 126.291C419.197 126.181 419.041 126.13 418.886 126.154C418.732 126.178 418.598 126.274 418.526 126.413C417.578 128.252 414.504 133.817 411.671 134.669Z" fill="#69BAC9"/>
<path fill-rule="evenodd" clip-rule="evenodd" d="M423.434 134.954C422.722 136.452 421.059 139.548 418.746 141.333C418.527 141.501 418.487 141.817 418.655 142.036C418.823 142.255 419.138 142.296 419.357 142.128C421.187 140.715 422.653 138.489 423.583 136.823C423.564 136.159 423.506 135.555 423.434 134.954ZM422.404 130.946C422.059 131.859 420.255 136.376 417.439 138.804C417.229 138.984 417.205 139.301 417.385 139.511C417.565 139.721 417.882 139.745 418.091 139.564C420.423 137.554 422.106 134.189 422.898 132.374C422.75 131.863 422.584 131.387 422.404 130.946ZM420.478 127.641C420.467 127.662 420.458 127.685 420.45 127.709C420.45 127.709 418.727 133.015 415.544 135.842C415.337 136.026 415.318 136.343 415.501 136.55C415.685 136.757 416.001 136.777 416.208 136.593C418.884 134.215 420.593 130.184 421.176 128.644C420.928 128.256 420.694 127.926 420.478 127.641Z" fill="white"/>
<path fill-rule="evenodd" clip-rule="evenodd" d="M411.671 134.67L411.126 133.8C411.126 133.8 410.074 134.442 409.181 134.571C408.907 134.61 408.717 134.865 408.757 135.139C408.796 135.413 409.05 135.603 409.323 135.564C410.298 135.423 411.671 134.67 411.671 134.67Z" fill="black"/>
<path fill-rule="evenodd" clip-rule="evenodd" d="M422.935 143.472C422.935 143.472 420.344 147.34 416.335 148.157C416.064 148.212 415.788 148.187 415.661 147.942C415.534 147.696 415.611 147.346 415.876 147.265C419.041 146.301 420.35 144.957 420.35 144.957L422.935 143.472Z" fill="black"/>
<path fill-rule="evenodd" clip-rule="evenodd" d="M106.153 337.682L106.297 318.55H107.798L107.654 338.058C107.654 338.304 107.534 338.534 107.333 338.675C107.333 338.675 102.67 341.895 101.52 346.388C111.737 341.498 118.576 339.698 127.98 339.332C134.293 339.083 140.558 340.656 147.265 343.269L146.654 318.596L148.155 318.55L148.799 344.365C148.806 344.618 148.686 344.859 148.478 345.004C148.271 345.15 148.004 345.18 147.769 345.084C140.872 342.311 134.484 340.581 128.038 340.834C118.449 341.21 111.589 343.118 100.872 348.374C100.629 348.492 100.343 348.472 100.12 348.319C99.8968 348.166 99.7726 347.908 99.7939 347.637C100.191 342.629 104.873 338.675 106.153 337.682Z" fill="white"/>
<path fill-rule="evenodd" clip-rule="evenodd" d="M295.095 437.66C294.34 435.997 291.903 432.451 284.569 431.064C284.276 431.009 284.044 430.783 283.979 430.493L278.058 404.508L279.506 404.074L285.332 429.683C295.848 431.854 296.886 438.279 296.886 438.279C296.924 438.497 296.864 438.723 296.721 438.893C296.578 439.064 296.368 439.164 296.146 439.164H244.539C244.196 439.164 243.899 438.931 243.811 438.6L238 416.505L239.374 416.091L245.119 437.66H295.095Z" fill="white"/>
<path fill-rule="evenodd" clip-rule="evenodd" d="M106.275 318.552H148.154V243.117L204.789 280.688L238 416.505L279.506 404.074L250.908 248.094L190.311 208.37C190.311 208.37 163.739 194.644 140.15 182.458C132.605 178.561 123.575 178.913 116.355 183.387C109.135 187.861 104.782 195.801 104.886 204.309C105.443 250.107 106.275 318.552 106.275 318.552Z" fill="#668DDB"/>
<path fill-rule="evenodd" clip-rule="evenodd" d="M215.34 224.779L216.598 225.602L210.24 235.765L213.621 238.469L220.375 228.08L221.631 228.903L214.427 239.984C214.312 240.162 214.127 240.282 213.917 240.316C213.709 240.35 213.496 240.294 213.329 240.161L208.779 236.522C208.481 236.284 208.409 235.858 208.611 235.534L215.332 224.791L215.34 224.779Z" fill="#3768BE"/>
<path fill-rule="evenodd" clip-rule="evenodd" d="M116.997 184.066C116.742 183.935 116.435 183.96 116.206 184.132C107.557 190.583 106.907 197.958 106.907 197.958C106.881 198.232 107.007 198.499 107.236 198.653C107.464 198.807 107.759 198.823 108.002 198.695C108.18 198.602 108.439 198.601 108.747 198.619C109.178 198.644 109.681 198.738 110.217 198.871C112.89 199.533 116.332 201.171 116.332 201.171C116.513 201.257 116.721 201.268 116.91 201.199C117.098 201.13 117.251 200.989 117.335 200.806C119.69 195.681 124.802 191.797 124.802 191.797C124.963 191.675 125.068 191.492 125.093 191.291C125.118 191.09 125.06 190.887 124.934 190.728C121.439 186.352 116.997 184.066 116.997 184.066ZM116.717 185.63C110.858 190.151 109.096 195.056 108.592 197.109C109.155 197.116 109.841 197.227 110.577 197.41C112.633 197.919 115.125 198.978 116.3 199.503C118.358 195.485 121.878 192.278 123.286 191.093C120.72 188.093 117.777 186.243 116.717 185.63Z" fill="#3768BE"/>
<path fill-rule="evenodd" clip-rule="evenodd" d="M106.193 311.768L106.175 310.263H148.154V311.768H137.446V318.551H135.945V311.768H134.077V318.551H132.576V311.768H115.248V318.551H113.747V311.768H106.193Z" fill="#3768BE"/>
<path fill-rule="evenodd" clip-rule="evenodd" d="M278.265 397.306L278.538 398.793L264.763 402.708L266.841 407.796L265.393 408.22L263.309 403.122L262.161 403.448L263.95 408.641L262.509 409.065L260.715 403.859L246.36 407.939L248.073 413.29L246.632 413.712L244.914 408.35L236.584 410.718L236.227 409.256L278.265 397.306Z" fill="#3768BE"/>
<path fill-rule="evenodd" clip-rule="evenodd" d="M249.404 334.631C249.209 334.668 249.036 334.784 248.924 334.949C248.814 335.115 248.771 335.318 248.809 335.514L251.208 347.841C251.245 348.04 251.36 348.213 251.528 348.323C251.695 348.436 251.901 348.476 252.096 348.436L263.902 345.991C264.097 345.951 264.27 345.835 264.377 345.667C264.488 345.499 264.525 345.296 264.485 345.1L261.929 332.968C261.844 332.567 261.453 332.309 261.053 332.386L249.404 334.631ZM250.427 335.967L252.536 346.808L262.859 344.672L260.613 334.004L250.427 335.967Z" fill="#3768BE"/>
<path fill-rule="evenodd" clip-rule="evenodd" d="M244.612 240.46C246.073 248.821 252.841 274.712 274.171 271.422C281.478 270.294 294.395 263.889 293.489 237.64C292.524 209.528 291.968 189.904 289.044 168.27C288.594 164.921 287.418 161.775 286 159.91C284.669 158.162 283.073 158.508 283.691 160.999C280.777 157.511 277.565 157.677 278.538 160.284C278.538 160.284 274.546 158.646 276.009 162.557C276.009 162.557 272.598 161.643 273.826 164.761C274.906 167.502 274.243 177.261 273.726 177.787C273.025 178.494 272.688 175.086 270.104 173.055C269.293 172.42 267.887 172.005 267.92 175.437C267.92 175.437 265.704 211.651 261.194 235.007L244.612 240.46Z" fill="white"/>
<path fill-rule="evenodd" clip-rule="evenodd" d="M278.123 183.047C277.748 182.269 277.248 181.528 276.78 180.91C276.077 179.981 275.234 179.209 274.314 178.502C274.246 178.449 273.353 177.83 273.353 177.83C273.663 178.007 273.894 177.535 273.926 177.172C274.036 177.247 274.814 177.729 274.872 177.774C275.855 178.531 276.755 179.361 277.508 180.355C277.926 180.906 278.361 181.549 278.726 182.23C279.882 180.88 281.565 179.91 283.291 179.733C283.544 179.707 283.769 179.891 283.794 180.142C283.819 180.395 283.637 180.62 283.386 180.646C281.75 180.813 280.162 181.805 279.164 183.146C279.374 183.655 279.529 184.171 279.597 184.675C279.639 184.998 279.572 185.839 279.292 186.303C279.144 186.543 278.946 186.7 278.719 186.758C278.499 186.814 278.226 186.789 277.913 186.567C277.483 186.263 277.318 185.778 277.341 185.236C277.366 184.599 277.663 183.88 277.876 183.476C277.953 183.331 278.036 183.188 278.123 183.047ZM278.556 184.166C278.416 184.481 278.271 184.895 278.254 185.274C278.246 185.489 278.269 185.697 278.439 185.818C278.454 185.828 278.474 185.838 278.489 185.847C278.514 185.808 278.551 185.742 278.571 185.693C278.686 185.385 278.714 184.973 278.689 184.797C278.661 184.588 278.616 184.377 278.556 184.166Z" fill="#FFD274"/>
<path fill-rule="evenodd" clip-rule="evenodd" d="M276.009 162.557L275.707 161.409C275.707 161.409 278.358 165.328 279.159 173.413C279.194 173.757 278.949 174.067 278.606 174.105C278.263 174.143 277.943 173.895 277.916 173.55C277.37 166.82 275.159 162.282 275.024 162.436L276.009 162.557Z" fill="#A52929" fill-opacity="0.86"/>
<path fill-rule="evenodd" clip-rule="evenodd" d="M278.576 158.7C278.283 159.099 278.346 159.662 278.538 160.284L277.99 160.106C277.99 160.106 281.292 166.607 281.435 173.083C281.442 173.429 281.728 173.703 282.073 173.695C282.418 173.688 282.693 173.401 282.686 173.055C282.516 165.334 278.576 158.7 278.576 158.7Z" fill="#A52929" fill-opacity="0.86"/>
<path fill-rule="evenodd" clip-rule="evenodd" d="M283.586 159.627C283.536 159.88 283.584 160.362 283.691 160.999C283.299 160.391 282.806 159.932 282.25 159.568C282.25 159.568 285.085 168.432 285.337 173.09C285.357 173.435 285.652 173.7 285.995 173.681C286.34 173.663 286.605 173.367 286.585 173.021C286.34 168.518 283.586 159.627 283.586 159.627Z" fill="#A52929" fill-opacity="0.86"/>
<path fill-rule="evenodd" clip-rule="evenodd" d="M258.125 236.017C258.125 236.017 258.267 240.525 258.44 245.946C258.457 246.465 258.875 246.88 259.393 246.891C259.908 246.901 260.344 246.505 260.384 245.987C260.821 240.068 261.194 235.007 261.194 235.007L258.125 236.017Z" fill="#FFD274"/>
<path fill-rule="evenodd" clip-rule="evenodd" d="M223.767 175.506L226.116 171.94C226.116 171.94 226.004 171.791 225.818 171.544C223.415 168.343 223.325 163.958 225.596 160.661C228.81 155.99 234.016 150.585 240.124 152.427C240.124 152.427 249.817 156.201 246.678 165.551L246.28 167.279C246.28 167.279 249.857 169.024 246.678 171.94C246.678 171.94 244.169 174.198 242.145 172.856L241.012 184.453C241.012 184.453 228.077 187.209 223.767 175.506Z" fill="white"/>
<path fill-rule="evenodd" clip-rule="evenodd" d="M226.164 171.908L225.423 173.071C225.423 173.071 226.459 173.937 227.142 174.355C229.04 175.52 231.857 176.517 235.904 176.398C236.317 176.386 236.644 176.039 236.632 175.624C236.619 175.209 236.272 174.882 235.859 174.894C232.197 175.002 229.643 174.126 227.924 173.071C227.279 172.676 226.164 171.908 226.164 171.908Z" fill="#FFD274"/>
<path fill-rule="evenodd" clip-rule="evenodd" d="M246.28 167.312L246.642 165.789C246.642 165.789 246.022 165.618 245.647 165.608C244.751 165.583 243.536 165.9 241.722 167.136C241.38 167.37 241.292 167.838 241.525 168.181C241.757 168.525 242.225 168.614 242.568 168.38C243.983 167.414 244.907 167.093 245.607 167.112C245.957 167.121 246.28 167.312 246.28 167.312Z" fill="#FFD274"/>
<path fill-rule="evenodd" clip-rule="evenodd" d="M240.569 173.602L241.963 174.67L242.223 172.871L241.58 172.491C241.275 172.211 240.799 172.233 240.519 172.539C240.242 172.846 240.262 173.322 240.569 173.602Z" fill="#FFD274"/>
<path fill-rule="evenodd" clip-rule="evenodd" d="M232.444 165.768C231.682 166.26 231.144 167.284 231.787 168.08C232.196 168.584 232.817 168.782 233.504 168.77C234.361 168.753 235.322 168.403 235.908 168.132C236.159 168.016 236.266 167.718 236.152 167.467C236.036 167.216 235.739 167.106 235.489 167.222C234.999 167.448 234.2 167.754 233.484 167.767C233.122 167.774 232.78 167.714 232.565 167.448C232.474 167.338 232.488 167.213 232.538 167.1C232.624 166.903 232.802 166.729 232.984 166.61C233.217 166.46 233.285 166.15 233.133 165.918C232.984 165.685 232.674 165.618 232.444 165.768Z" fill="#FFD274"/>
<path fill-rule="evenodd" clip-rule="evenodd" d="M235.909 168.132C237.36 167.46 237.187 166.084 236.605 165.547C236.201 165.176 235.575 165.018 234.892 165.042C233.992 165.074 232.995 165.411 232.444 165.768C232.211 165.918 232.145 166.228 232.295 166.461C232.444 166.693 232.754 166.76 232.984 166.61C233.423 166.327 234.214 166.069 234.927 166.044C235.322 166.03 235.696 166.072 235.928 166.286C236.152 166.492 236.049 166.962 235.489 167.222C235.237 167.338 235.129 167.636 235.243 167.887C235.36 168.138 235.656 168.248 235.909 168.132Z" fill="#FFD274"/>
<path fill-rule="evenodd" clip-rule="evenodd" d="M200.137 171.171C200.137 171.171 208.454 169.8 223.69 176.324C223.815 176.377 224.178 176.551 224.178 176.551L223.788 175.496L224.038 175.101C224.038 175.101 223.815 175.023 223.69 174.97C207.869 168.19 199.814 169.701 199.814 169.701C199.409 169.79 199.154 170.192 199.242 170.597C199.332 171.003 199.732 171.26 200.137 171.171Z" fill="black"/>
<path fill-rule="evenodd" clip-rule="evenodd" d="M241.153 182.929L241.008 184.441C241.008 184.441 241.18 184.512 241.275 184.552C244.91 186.09 255.201 191.49 264.478 206.242C264.638 206.499 264.961 207.021 264.961 207.021L265.224 204.57C265.224 204.57 265.076 204.39 264.961 204.214C255.398 189.608 244.972 184.421 241.52 183.025C241.433 182.99 241.153 182.929 241.153 182.929Z" fill="black"/>
<path fill-rule="evenodd" clip-rule="evenodd" d="M191.845 208.352L196.507 205.697C196.832 205.438 196.885 204.965 196.627 204.64C196.37 204.315 195.947 203.939 195.622 204.198L190.688 207.033L191.845 208.352Z" fill="black"/>
<path fill-rule="evenodd" clip-rule="evenodd" d="M193.26 192.1L197.235 212.912L199.001 214.049L194.731 191.802C194.649 191.395 194.253 191.131 193.847 191.213C193.441 191.296 193.178 191.693 193.26 192.1Z" fill="black"/>
<path fill-rule="evenodd" clip-rule="evenodd" d="M239.386 221.765L242.681 242.7L245.407 244.485L240.862 221.494C240.787 221.085 240.397 220.815 239.989 220.89C239.581 220.965 239.311 221.357 239.386 221.765Z" fill="black"/>
<path fill-rule="evenodd" clip-rule="evenodd" d="M238.851 240.187L239.494 221.427C242.058 228.405 243.229 236.344 244.539 243.917C242.616 242.639 240.75 241.443 238.851 240.187Z" fill="black"/>
<path fill-rule="evenodd" clip-rule="evenodd" d="M222.902 112.551C189.912 134.194 174.974 145.262 148.486 175.078C141.788 182.601 140.272 193.428 144.647 202.508C145.568 204.398 146.715 206.363 148.155 208.37C148.155 208.37 148.155 208.37 148.155 208.37C155.72 218.914 170.122 221.814 181.161 215.015C186.911 211.474 191.951 208.37 191.951 208.37L177.874 192.462L230.609 139.908C230.609 139.908 234.781 137.306 235.117 140.885C235.117 140.885 238.574 140.761 238.001 135.412C238.001 135.412 241.543 132.893 239.479 129.135C239.479 129.135 241.588 124.664 238.001 121.592C238.001 121.592 238.228 117.317 233.761 116.013C233.761 116.013 228.823 114.36 223.94 116.013L222.902 112.551Z" fill="white"/>
<path fill-rule="evenodd" clip-rule="evenodd" d="M177.653 192.205L178.648 193.331L170.152 201.049C169.845 201.328 169.37 201.304 169.092 200.997C168.814 200.689 168.837 200.213 169.144 199.934L177.653 192.205Z" fill="#FFD274"/>
<path fill-rule="evenodd" clip-rule="evenodd" d="M238.001 135.598C237.085 133.984 235.329 133.418 233.546 133.278C230.432 133.033 227.17 134.11 227.17 134.11C226.775 134.24 226.352 134.025 226.222 133.63C226.092 133.236 226.307 132.81 226.7 132.681C226.7 132.681 230.264 131.511 233.664 131.778C235.77 131.943 237.793 132.659 239.014 134.394C238.624 134.835 238.001 135.411 238.001 135.411V135.598ZM239.374 129.217C233.498 124.876 225.714 128.194 225.714 128.194C225.331 128.356 224.891 128.176 224.731 127.793C224.571 127.411 224.751 126.969 225.131 126.808C225.131 126.808 233.446 123.328 239.915 127.757C239.822 128.184 239.637 128.875 239.374 129.217ZM238.001 121.646C230.564 118.563 223.285 122.466 223.285 122.466C222.92 122.661 222.465 122.523 222.27 122.156C222.075 121.79 222.212 121.334 222.577 121.138C222.577 121.138 229.974 117.187 237.773 119.95C237.858 120.313 238.056 121.21 238.001 121.646ZM223.53 114.655C223.643 115.032 223.878 115.841 223.953 116.105L220.559 117.442C220.174 117.594 219.736 117.403 219.586 117.017C219.433 116.63 219.623 116.193 220.008 116.041L223.53 114.655Z" fill="#FFD274"/>
<path fill-rule="evenodd" clip-rule="evenodd" d="M321.072 139.413C320.982 140.274 320.592 141.076 319.971 141.678C319.496 142.144 318.923 142.439 318.415 141.997C318.068 141.695 317.55 139.673 317.362 138.867C317.362 138.867 316.762 136.891 318.16 134.847C318.16 134.847 315.389 132.854 317.968 129.833C317.968 129.833 316.337 126.484 319.176 124.54C319.176 124.54 317.242 121.307 322.108 118.153C323.546 117.221 327.841 113.402 335.783 118.687L357.625 133.285L343.517 155.447C343.517 155.447 324.767 137.34 323.176 137.048C323.176 137.048 321.397 136.071 321.072 139.413Z" fill="#FFD274"/>
<path fill-rule="evenodd" clip-rule="evenodd" d="M317.292 133.743C318.401 132.579 320.354 130.845 322.921 130.812C324.587 130.791 326.348 131.322 328.271 133.385C328.601 133.739 328.704 134.138 328.351 134.468C327.998 134.799 327.443 134.78 327.113 134.427C325.635 132.841 324.221 132.258 322.941 132.274C320.809 132.302 319.006 133.941 318.173 134.878C317.475 134.398 317.43 134.136 317.292 133.743ZM317.578 128.275C317.608 129.013 317.688 129.164 317.995 129.794C317.995 129.794 319.626 128.019 321.127 127.418C322.898 126.709 325.309 126.614 328.439 128.133C328.874 128.345 329.399 128.162 329.609 127.726C329.82 127.29 329.577 126.994 329.142 126.783C325.41 124.972 322.713 125.383 320.602 126.228C319.356 126.727 317.578 128.275 317.578 128.275ZM318.836 123.238C318.868 123.993 318.936 123.784 319.146 124.524C319.146 124.524 319.331 124.414 319.396 124.362C321.282 122.857 325.34 120.562 330.275 123.009C330.708 123.223 331.11 123.145 331.325 122.711C331.54 122.276 331.263 122.048 330.83 121.833C325.635 119.258 321.552 121.347 319.119 123.039C319.043 123.09 318.836 123.238 318.836 123.238Z" fill="black"/>
<path fill-rule="evenodd" clip-rule="evenodd" d="M266.714 202.419C266.714 202.419 266.191 170.25 271.377 167.147C271.377 167.147 273.17 166.768 273.575 170.106C273.575 170.106 279.991 159.861 284.064 158.303C284.702 158.059 286.613 157.744 286.137 160.012C286.137 160.012 288.581 159.178 288.889 162.289C288.889 162.289 291.675 162.313 291.248 165.287C291.248 165.287 293.949 166.16 292.443 169.219C292.443 169.219 286.117 179.967 290.437 203.462L266.714 202.419Z" fill="#FFD274"/>
<path fill-rule="evenodd" clip-rule="evenodd" d="M291.258 165.273C291.406 165.296 291.946 165.474 292.306 166.035C291.306 166.842 288.371 169.581 284.279 176.442C284.102 176.739 283.716 176.836 283.421 176.658C283.123 176.481 283.028 176.095 283.206 175.798C287.011 169.422 289.935 166.421 291.258 165.273ZM273.19 168.475C273.365 168.903 273.506 169.623 273.583 170.107C272.402 172.024 271.855 174.165 271.855 174.165C271.767 174.5 271.427 174.702 271.092 174.616C270.759 174.529 270.556 174.187 270.641 173.852C270.641 173.852 271.394 170.933 273.018 168.701C273.045 168.663 273.155 168.505 273.19 168.475ZM288.822 162.274C288.989 162.26 289.667 162.299 290.197 162.671C288.899 163.948 283.866 169.033 280.877 174.028C280.7 174.324 280.317 174.421 280.019 174.243C279.724 174.065 279.627 173.68 279.804 173.383C282.553 168.788 286.993 164.115 288.822 162.274ZM286.148 159.954C286.368 159.896 287.413 159.713 287.839 160.202C286.035 161.56 281.478 165.608 277.958 172.267C277.795 172.573 277.418 172.69 277.113 172.528C276.807 172.366 276.69 171.986 276.852 171.68C279.979 165.764 283.906 161.842 286.148 159.954Z" fill="black"/>
<path fill-rule="evenodd" clip-rule="evenodd" d="M347.021 165.654C347.021 165.654 337.106 200.13 293.644 209.502C293.644 209.502 296.868 196.104 315.191 185.646L314.776 174.475C314.776 174.475 308.988 176.285 308.908 170.926C308.883 169.421 310.428 168.789 311.549 168.28C311.549 168.28 314.131 173.416 318.886 171.315C320.779 170.477 324.296 165.66 324.969 157.772C324.969 157.772 327.798 158.864 328.108 156.586C328.108 156.586 329.914 161.094 331.28 164.508C332.183 166.759 331.568 169.335 329.747 170.931L330.89 174.624C330.89 174.624 339.707 164.289 347.021 165.654Z" fill="#FFD274"/>
<path fill-rule="evenodd" clip-rule="evenodd" d="M325.649 166.734C325.214 166.929 324.774 167.228 324.499 167.58C324.146 168.033 324.029 168.567 324.336 169.136C324.596 169.614 325.052 169.878 325.577 169.965C326.257 170.079 327.053 169.874 327.533 169.552C327.763 169.398 327.826 169.086 327.671 168.856C327.518 168.626 327.208 168.564 326.978 168.718C326.723 168.889 326.325 169.002 325.952 168.995C325.654 168.989 325.357 168.917 325.217 168.657C325.124 168.488 325.184 168.332 325.289 168.198C325.469 167.964 325.77 167.779 326.057 167.649C326.31 167.536 326.422 167.239 326.31 166.986C326.197 166.734 325.9 166.621 325.649 166.734Z" fill="black"/>
<path fill-rule="evenodd" clip-rule="evenodd" d="M327.533 169.551C327.778 169.388 328.133 169.127 328.379 168.803C328.699 168.378 328.844 167.861 328.554 167.291C328.366 166.925 328.008 166.664 327.548 166.543C326.985 166.395 326.26 166.458 325.65 166.733C325.397 166.847 325.284 167.144 325.397 167.396C325.509 167.649 325.807 167.762 326.057 167.649C326.455 167.47 326.928 167.416 327.293 167.513C327.453 167.555 327.598 167.62 327.663 167.747C327.751 167.919 327.678 168.07 327.581 168.198C327.408 168.426 327.15 168.602 326.978 168.717C326.748 168.871 326.685 169.183 326.84 169.413C326.993 169.643 327.303 169.705 327.533 169.551Z" fill="black"/>
<path fill-rule="evenodd" clip-rule="evenodd" d="M329.76 170.97L330.087 172.034C328.597 173.424 325.963 175.32 322.596 175.462C322.321 175.473 322.085 175.258 322.075 174.982C322.063 174.705 322.278 174.471 322.553 174.46C325.923 174.318 328.487 172.25 329.76 170.97Z" fill="black"/>
<path fill-rule="evenodd" clip-rule="evenodd" d="M331.498 176.649L330.89 174.625C330.89 174.625 331.245 174.27 331.661 173.831L332.451 176.348C332.534 176.612 332.388 176.894 332.123 176.977C331.861 177.06 331.581 176.914 331.498 176.649Z" fill="black"/>
<path fill-rule="evenodd" clip-rule="evenodd" d="M309.921 163.058C307.78 163.934 305.326 164.174 303.047 163.898C298.117 163.299 293.717 160.261 290.452 156.641C288.086 154.018 286.268 150.904 283.188 149.025C278.976 146.456 274.428 148.282 269.938 148.975C262.249 150.162 253.484 148.531 249.344 141.177C248.234 139.208 247.626 136.995 247.528 134.737C247.411 132.042 248.119 129.317 249.294 126.906C252.966 119.373 261.964 114.286 270.216 117.039C274.148 118.351 277.403 121.239 279.911 124.472C282.153 127.36 283.601 130.683 285.272 133.909C286.067 135.444 286.953 137.534 288.564 138.382C290.41 139.355 292.183 137.708 293.439 136.515C295.758 134.314 298.399 131.807 301.731 131.446C305.496 131.039 308.072 134.034 309.788 136.992C312.895 142.349 314.078 147.887 314.423 153.855C315.269 153.287 316.264 152.772 317.43 152.329C317.43 152.329 325.91 150.034 328.109 156.587C328.109 156.587 327.951 159.263 324.969 157.772C324.969 157.772 325.374 169.83 317.643 171.718C316.344 172.034 313.75 172.274 311.157 168.458C311.157 168.458 310.056 166.078 309.921 163.058Z" fill="black"/>
<path d="M401.455 323.193V340.083C401.455 340.083 442.485 338.214 450.65 345.256C450.65 345.256 453.156 341.409 444.039 336.73V311.016" stroke="#668DDB" stroke-width="0.00219619" stroke-miterlimit="2.28659" stroke-linecap="round" stroke-linejoin="round"/>
<path fill-rule="evenodd" clip-rule="evenodd" d="M274.361 434.951L278.538 417.076C279.086 417.182 279.589 417.295 279.997 417.425L275.707 435.776C275.637 436.075 275.394 436.3 275.091 436.346C275.091 436.346 271.362 436.925 267.732 438.846C265.706 439.917 263.702 441.404 262.437 443.467H314.106L317.475 427.215L318.898 427.511L315.449 444.373C315.376 444.721 315.069 444.972 314.714 444.972H261.194C260.941 444.972 260.703 444.844 260.566 444.629C260.426 444.415 260.406 444.147 260.508 443.914C261.816 440.972 264.393 438.908 267.032 437.514C270.071 435.909 273.173 435.187 274.361 434.951Z" fill="#668DDB"/>
<path fill-rule="evenodd" clip-rule="evenodd" d="M443.288 310.449V219.268C443.288 209.076 438.16 199.572 429.651 193.994C421.143 188.415 410.402 187.516 401.09 191.601C382.269 199.856 360.249 210.177 360.249 210.177C359.871 210.344 359.426 210.17 359.261 209.79C359.096 209.409 359.269 208.965 359.649 208.799C359.649 208.799 381.669 198.478 400.487 190.223C410.265 185.934 421.541 186.878 430.474 192.734C439.406 198.591 444.789 208.569 444.789 219.268V311.016C444.789 311.174 444.799 311.598 444.799 311.598C444.799 311.598 444.414 311.69 444.244 311.738L401.66 323.918C401.437 323.981 400.727 324.161 400.727 324.161C400.727 324.161 400.714 323.454 400.704 323.223L397.663 247.238L360.524 267.083L319.096 426.874C319.046 427.067 318.899 427.511 318.899 427.511C318.899 427.511 318.373 427.463 318.181 427.413L279.316 417.232L278.538 417.076C277.438 416.063 294.517 326.102 300.473 279.211C306.919 228.449 327.421 225.644 327.631 225.906C328.044 225.865 328.411 226.168 328.451 226.581C328.491 226.994 328.189 227.362 327.776 227.403C327.776 227.403 321.713 229.81 316.767 235.999C311.614 242.448 305.701 254.929 302.532 279.013C296.296 326.431 285.955 374.142 280.339 415.943L317.833 425.766L359.154 266.386C359.206 266.181 359.344 266.01 359.529 265.91L398.01 245.346C398.238 245.225 398.513 245.229 398.736 245.357C398.961 245.486 399.104 245.721 399.114 245.98L402.165 322.208L443.288 310.449Z" fill="white"/>
<path fill-rule="evenodd" clip-rule="evenodd" d="M315.257 424.695C315.064 424.449 314.874 424.189 314.691 423.913C312.668 420.856 311.302 415.938 311.302 410.381C311.302 404.822 312.668 399.904 314.691 396.847C316.327 394.38 318.433 393.06 320.615 393.06C322.798 393.06 324.904 394.38 326.54 396.847C326.565 396.887 326.59 396.925 326.615 396.965L325.245 402.276C324.807 400.932 324.259 399.751 323.624 398.791C322.753 397.479 321.775 396.571 320.615 396.571C319.456 396.571 318.478 397.479 317.608 398.791C315.877 401.404 314.804 405.629 314.804 410.381C314.804 415.131 315.877 419.359 317.608 421.969C318.226 422.9 318.896 423.629 319.649 423.973L319.226 425.618L315.257 424.695ZM283.406 395.508C288.046 393.228 292.679 392.293 296.113 392.652C299.055 392.958 301.199 394.214 302.212 396.152C303.225 398.088 303.037 400.574 301.616 403.172C299.858 406.386 296.146 409.885 291.236 412.465C287.311 414.529 283.344 415.627 280.049 415.79L280.637 412.237C283.326 411.981 286.478 411.003 289.61 409.355C293.807 407.149 297.041 404.232 298.545 401.484C299.3 400.102 299.65 398.811 299.11 397.782C298.572 396.752 297.314 396.305 295.753 396.145C292.641 395.819 288.409 396.83 284.212 399.034C283.686 399.312 283.174 399.601 282.681 399.896L283.406 395.508ZM289.327 359.741C289.905 359.655 290.515 359.618 291.161 359.63C294.818 359.698 299.63 361.368 304.19 364.53C308.75 367.69 312.01 371.615 313.366 375.023C314.451 377.751 314.349 380.224 313.133 382.019L313.105 382.062C311.865 383.86 309.583 384.845 306.627 384.793C302.97 384.722 298.157 383.052 293.597 379.89C290.905 378.027 288.667 375.895 287.006 373.761L287.869 368.553C289.132 371.351 291.891 374.441 295.588 377.004C299.488 379.704 303.565 381.224 306.692 381.282C308.263 381.309 309.566 381.021 310.224 380.066C310.884 379.108 310.694 377.786 310.114 376.322C308.953 373.41 306.096 370.12 302.199 367.419C298.302 364.716 294.222 363.199 291.096 363.141C290.185 363.124 289.365 363.214 288.709 363.477L289.327 359.741ZM325.227 373.024C323.083 372.741 321.172 371.176 319.859 368.548C318.221 365.268 317.463 360.22 318.136 354.703C318.811 349.186 320.765 344.469 323.143 341.685C325.067 339.433 327.318 338.38 329.485 338.646C331.648 338.912 333.579 340.482 334.905 343.13C336.544 346.41 337.301 351.458 336.626 356.975C335.951 362.492 334 367.206 331.618 369.992C329.697 372.242 327.443 373.297 325.28 373.031L325.227 373.024ZM329.057 342.132C327.906 341.989 326.826 342.771 325.802 343.967C323.769 346.35 322.19 350.415 321.613 355.129C321.035 359.846 321.59 364.172 322.991 366.975C323.689 368.372 324.542 369.388 325.677 369.543L325.705 369.546C326.856 369.686 327.936 368.904 328.959 367.708C330.995 365.328 332.574 361.263 333.149 356.548C333.727 351.831 333.174 347.506 331.773 344.702C331.07 343.293 330.207 342.272 329.057 342.132ZM294.327 329.538C294.655 329.638 294.985 329.741 295.315 329.851C300.576 331.604 304.803 334.456 307.054 337.344C308.875 339.679 309.461 342.099 308.773 344.175C308.085 346.252 306.171 347.839 303.317 348.617C300.196 349.467 295.853 349.369 291.251 348.12L291.826 344.639C295.858 345.79 299.67 345.973 302.399 345.229C303.915 344.815 305.083 344.17 305.451 343.067C305.816 341.966 305.263 340.747 304.295 339.506C302.369 337.036 298.707 334.681 294.212 333.184C294.057 333.131 293.902 333.081 293.747 333.034L294.327 329.538ZM306.574 327.918C304.681 326.832 303.507 324.635 303.31 321.679C303.067 318.02 304.318 313.07 307.072 308.248C309.824 303.423 313.446 299.832 316.717 298.189C319.359 296.863 321.843 296.765 323.736 297.851C325.63 298.937 326.803 301.131 327.001 304.087C327.246 307.749 325.993 312.696 323.239 317.521C320.487 322.346 316.865 325.934 313.593 327.579C310.952 328.906 308.468 329.004 306.574 327.918ZM345.106 325.272C344.46 324.881 343.82 324.387 343.192 323.79C340.448 321.182 337.854 316.51 336.406 310.851C334.958 305.191 334.988 299.844 336.138 296.233C337.076 293.292 338.795 291.418 340.908 290.874C343.025 290.33 345.429 291.145 347.662 293.269C349.153 294.686 350.596 296.71 351.84 299.167L350.389 304.795C349.103 300.913 347.252 297.718 345.253 295.817C344.068 294.691 342.9 293.986 341.779 294.275C340.658 294.563 339.973 295.744 339.475 297.302C338.475 300.436 338.542 305.07 339.798 309.978C341.054 314.885 343.222 318.981 345.601 321.245C345.749 321.383 345.896 321.518 346.041 321.644L345.106 325.272ZM321.998 300.898C320.99 300.321 319.692 300.622 318.286 301.329C315.492 302.733 312.465 305.868 310.111 309.99C307.757 314.113 306.597 318.316 306.804 321.446C306.909 323.018 307.307 324.294 308.313 324.871C309.321 325.448 310.619 325.147 312.025 324.44C314.819 323.035 317.846 319.901 320.199 315.778C322.553 311.656 323.714 307.45 323.506 304.323C323.401 302.751 323.003 301.474 321.998 300.898ZM401.187 311.227C403.146 310.231 405.039 309.587 406.73 309.323C409.65 308.87 412.043 309.539 413.517 311.154C414.987 312.766 415.435 315.217 414.722 318.093C414.535 318.848 414.267 319.635 413.919 320.443L409.219 321.844C410.247 320.249 410.968 318.68 411.323 317.245C411.703 315.716 411.713 314.379 410.93 313.521C410.15 312.664 408.819 312.551 407.266 312.794C405.477 313.072 403.439 313.877 401.357 315.131L401.187 311.227ZM443.809 286.471L443.829 290.177C441.382 291.14 438.716 292.84 436.222 295.125C432.722 298.33 430.336 301.978 429.581 305.02C429.2 306.547 429.19 307.884 429.973 308.744C430.756 309.602 432.085 309.712 433.635 309.471C436.68 308.997 440.449 306.994 443.906 303.872L443.931 308.391C440.557 310.921 437.067 312.488 434.173 312.94C431.254 313.393 428.86 312.726 427.387 311.111C425.916 309.496 425.468 307.046 426.181 304.17C427.067 300.612 429.766 296.283 433.861 292.534C437.122 289.545 440.672 287.471 443.809 286.471ZM399.279 267.222C399.591 266.923 399.932 266.665 400.302 266.449C402.188 265.351 404.672 265.431 407.323 266.74C410.605 268.36 414.252 271.926 417.039 276.731C419.825 281.536 421.111 286.476 420.891 290.137C420.716 293.096 419.555 295.298 417.669 296.399C415.783 297.497 413.299 297.417 410.648 296.108C407.366 294.485 403.721 290.922 400.935 286.117C400.612 285.56 400.309 285.001 400.027 284.445L399.279 267.222ZM413.954 278.398C411.581 274.339 408.559 271.264 405.775 269.89C404.367 269.193 403.063 268.902 402.063 269.484C401.06 270.068 400.669 271.347 400.577 272.919C400.389 276.049 401.58 280.244 403.961 284.352C406.343 288.459 409.392 291.571 412.196 292.958C413.607 293.655 414.907 293.946 415.911 293.362C416.911 292.778 417.301 291.501 417.396 289.929C417.581 286.799 416.393 282.601 414.009 278.496L413.954 278.398ZM304.758 266.512C306.694 267.55 308.673 268.909 310.566 270.569C314.739 274.228 317.533 278.496 318.493 282.037C319.269 284.896 318.876 287.356 317.438 289.001C316.002 290.649 313.623 291.368 310.694 290.977C307.94 290.611 304.628 289.249 301.366 287.012L302.007 283.141C305.166 285.596 308.458 287.138 311.157 287.496C312.713 287.705 314.038 287.564 314.804 286.691C315.567 285.816 315.527 284.48 315.114 282.96C314.294 279.933 311.827 276.34 308.26 273.213C306.914 272.034 305.526 271.018 304.15 270.191L304.758 266.512ZM330.27 280.711C325.18 278.303 321.255 274.94 319.319 271.786C317.75 269.23 317.443 266.743 318.373 264.764C319.304 262.786 321.415 261.441 324.379 261.028C328.009 260.521 333.044 261.399 338.094 263.764L338.214 263.819C343.305 266.224 347.227 269.589 349.166 272.744C350.731 275.299 351.042 277.787 350.111 279.765C349.181 281.744 347.069 283.088 344.105 283.502C340.446 284.011 335.36 283.115 330.27 280.711ZM443.764 278.183C443.574 278.386 443.381 278.584 443.188 278.767C441.052 280.816 438.708 281.643 436.58 281.164C434.451 280.685 432.685 278.933 431.627 276.167C430.321 272.741 430.061 267.643 431.277 262.219C432.49 256.795 434.896 252.296 437.54 249.761C439.491 247.888 441.615 247.037 443.589 247.268L443.611 250.854C443.536 250.829 443.458 250.806 443.381 250.789C442.25 250.533 441.097 251.208 439.962 252.296C437.703 254.465 435.732 258.352 434.694 262.989C433.655 267.623 433.781 271.984 434.899 274.91C435.459 276.382 436.214 277.483 437.348 277.739C438.478 277.992 439.631 277.32 440.767 276.232C441.843 275.199 442.853 273.777 443.729 272.069L443.764 278.183ZM336.721 266.993C332.349 264.927 328.001 264.067 324.859 264.506C323.286 264.724 322.035 265.21 321.54 266.261C321.047 267.312 321.468 268.588 322.301 269.945C323.951 272.633 327.338 275.424 331.661 277.486L331.763 277.536C336.133 279.602 340.481 280.462 343.622 280.023C345.198 279.805 346.449 279.319 346.942 278.268C347.437 277.217 347.014 275.941 346.181 274.584C344.52 271.876 341.091 269.06 336.721 266.993ZM372.036 260.145C370.175 255.225 369.682 250.438 370.385 247.001C370.978 244.098 372.439 242.082 374.462 241.263C376.483 240.443 378.93 240.877 381.369 242.55C383.883 244.274 386.451 247.365 388.443 251.323L385.356 252.983C383.675 249.593 381.536 246.919 379.393 245.447C378.094 244.558 376.849 244.082 375.773 244.518C374.697 244.953 374.132 246.164 373.814 247.707C373.237 250.535 373.687 254.43 375.15 258.47L372.036 260.145ZM321.99 229.216C323.329 230.126 324.664 231.192 325.953 232.404C329.995 236.208 332.639 240.572 333.474 244.143C334.15 247.027 333.669 249.471 332.176 251.067C330.683 252.662 328.281 253.296 325.367 252.802C321.758 252.193 317.248 249.826 313.203 246.021C312.387 245.252 311.627 244.46 310.927 243.656C311.484 242.428 312.055 241.289 312.633 240.23C313.496 241.328 314.491 242.417 315.602 243.461C319.056 246.712 322.866 248.819 325.95 249.342C327.498 249.604 328.829 249.511 329.622 248.663C330.415 247.816 330.425 246.479 330.065 244.946C329.349 241.893 327.011 238.215 323.556 234.964C322.115 233.61 320.617 232.454 319.131 231.529C320.124 230.592 321.085 229.832 321.99 229.216ZM416.623 231.775C420.293 227.68 424.538 224.956 428.05 224.034C430.909 223.283 433.358 223.702 434.986 225.158C436.615 226.613 437.31 229.005 436.892 231.938C436.377 235.569 434.131 240.152 430.441 244.3C426.752 248.449 422.467 251.21 418.927 252.138C416.068 252.89 413.619 252.471 411.991 251.014C410.362 249.559 409.667 247.168 410.085 244.234C410.6 240.603 412.846 236.021 416.536 231.872L416.623 231.775ZM342.232 233.916C342.912 228.4 344.871 223.687 347.257 220.904C349.181 218.657 351.434 217.606 353.601 217.874C355.764 218.143 357.693 219.714 359.014 222.365C360.65 225.647 361.4 230.696 360.72 236.212C360.037 241.728 358.078 246.441 355.694 249.223C353.768 251.471 351.517 252.522 349.351 252.253C347.187 251.985 345.258 250.415 343.938 247.763C342.302 244.481 341.551 239.432 342.232 233.916ZM427.827 241.964C430.981 238.418 432.985 234.546 433.425 231.442C433.648 229.883 433.52 228.552 432.655 227.778C431.789 227.004 430.456 227.031 428.938 227.43C425.911 228.224 422.304 230.662 419.15 234.209C415.996 237.754 413.992 241.626 413.552 244.73C413.329 246.289 413.454 247.62 414.32 248.394C415.188 249.168 416.521 249.142 418.039 248.743C421.066 247.948 424.673 245.51 427.827 241.964ZM357.258 235.67C357.818 230.998 357.268 226.716 355.882 223.933C355.179 222.524 354.321 221.502 353.168 221.359C352.017 221.216 350.937 221.997 349.911 223.192C347.875 225.57 346.289 229.633 345.706 234.347C345.126 239.062 345.674 243.389 347.069 246.195C347.772 247.604 348.63 248.626 349.781 248.769C350.932 248.912 352.015 248.131 353.038 246.936C355.076 244.558 356.66 240.495 357.243 235.78L357.258 235.67ZM383.355 232.913C379.097 229.438 376.176 225.32 375.085 221.848C374.197 219.022 374.495 216.549 375.866 214.848C377.236 213.146 379.585 212.333 382.529 212.608C386.171 212.949 390.846 214.974 395.159 218.466C399.474 221.958 402.433 226.114 403.531 229.612C404.419 232.439 404.119 234.912 402.748 236.613C401.377 238.315 399.029 239.128 396.087 238.853C392.442 238.513 387.77 236.487 383.455 232.995L383.355 232.913ZM392.96 221.197C389.273 218.212 385.318 216.395 382.204 216.104C380.641 215.957 379.32 216.149 378.592 217.053C377.862 217.958 377.954 219.292 378.425 220.794C379.358 223.762 381.929 227.224 385.568 230.193L385.656 230.263C389.343 233.249 393.298 235.066 396.412 235.357C397.975 235.504 399.296 235.312 400.024 234.408C400.752 233.503 400.662 232.169 400.189 230.667C399.251 227.676 396.647 224.183 392.96 221.197ZM430.108 193.525C434.458 196.292 437.46 199.867 439.494 203.154C439.184 203.845 438.766 204.542 438.243 205.232C436.032 208.154 431.847 211.065 426.612 212.894C421.376 214.723 416.296 215.049 412.751 214.138C409.887 213.401 407.949 211.841 407.233 209.776C406.515 207.711 407.066 205.282 408.852 202.921C411.063 199.999 415.248 197.088 420.483 195.259C423.883 194.071 427.217 193.518 430.108 193.525ZM410.54 208.621C410.157 207.523 410.693 206.298 411.641 205.044C413.532 202.546 417.159 200.138 421.634 198.574C426.109 197.011 430.446 196.637 433.475 197.416C434.996 197.808 436.174 198.435 436.555 199.532C436.937 200.63 436.402 201.855 435.454 203.11C433.563 205.608 429.936 208.016 425.461 209.579C420.986 211.142 416.651 211.516 413.619 210.737C412.098 210.346 410.92 209.719 410.54 208.621ZM395.024 193.559C395.767 194.063 396.43 194.592 397.005 195.136C399.149 197.174 400.087 199.481 399.714 201.636C399.341 203.791 397.68 205.646 394.976 206.839C391.627 208.315 386.559 208.822 381.096 207.87C377.326 207.214 373.967 205.967 371.376 204.428L375.418 202.571C377.259 203.373 379.393 204.01 381.696 204.412C386.364 205.225 390.704 204.887 393.566 203.625C395.004 202.991 396.064 202.18 396.262 201.035C396.462 199.89 395.737 198.768 394.596 197.685C393.696 196.831 392.53 196.035 391.162 195.335L395.024 193.559Z" fill="white"/>
<path fill-rule="evenodd" clip-rule="evenodd" d="M266.569 202.119L292.159 203.437L293.402 208.702C293.402 208.702 329.297 205.351 346.992 165.455L354.539 167.061L343.487 155.155L357.478 133.021C357.478 133.021 407.883 170.458 408.897 191.772C408.897 191.772 408.914 192.005 408.927 192.425C409.077 198.628 406.1 204.49 401.005 208.012C395.909 211.536 389.386 212.244 383.655 209.897C374.452 206.126 361.98 201.018 361.98 201.018C361.98 201.018 364.294 206.27 363.851 208.769L326.46 228.767C326.46 228.767 318.493 227.483 313.651 220.213C313.651 220.213 319.872 245.507 303.855 264.263C299.263 269.647 291.871 271.693 285.175 269.436C279.762 267.601 274.354 262.538 271.99 250.433C271.99 250.433 265.609 223.287 266.569 202.119Z" fill="#FFD274"/>
<path fill-rule="evenodd" clip-rule="evenodd" d="M298.587 245.833C298.577 245.704 298.547 245.312 298.502 244.92C297.917 239.738 293.419 208.717 293.419 208.717L295.155 208.489C295.155 208.489 299.658 239.537 300.241 244.722C300.308 245.302 300.341 245.693 300.343 245.861C300.346 246.026 300.321 246.135 300.306 246.188C300.198 246.569 299.948 246.705 299.79 246.769C299.583 246.856 299.36 246.867 299.122 246.77C298.745 246.615 298.532 246.222 298.587 245.833ZM299.225 245.111C299.405 245.062 299.6 245.07 299.785 245.145C299.59 245.065 299.403 245.06 299.225 245.111Z" fill="white"/>
<path fill-rule="evenodd" clip-rule="evenodd" d="M354.628 167.048L351.677 166.504L384.155 200.338C384.49 200.687 385.043 200.698 385.393 200.362C385.741 200.026 385.751 199.47 385.415 199.121L354.628 167.048Z" fill="white"/>
<path fill-rule="evenodd" clip-rule="evenodd" d="M361.755 200.956C359.882 196.341 357.345 192.121 357.345 192.121C357.095 191.705 357.23 191.166 357.645 190.916C358.058 190.666 358.596 190.801 358.846 191.216C358.846 191.216 362.018 196.514 363.964 201.823L361.755 200.956Z" fill="white"/>
<path fill-rule="evenodd" clip-rule="evenodd" d="M170.586 384.504C170.586 384.504 176.152 371.584 186.382 369.29C186.382 369.29 187.574 377.131 184.54 388.316C184.54 388.316 192.283 383.112 196.55 384.504C196.55 384.504 196.417 392.03 191.196 398.713C191.196 398.713 186.108 386.48 171.09 392.599C171.09 392.599 170.901 385.377 170.586 384.504Z" fill="#668DDB"/>
<path fill-rule="evenodd" clip-rule="evenodd" d="M68.75 418.636C68.75 418.636 57.2551 411.407 53.5 390.751C53.5 390.751 55.4013 390.369 59.4248 392.263C59.4248 392.263 54.1083 382.483 56.5172 372.086C56.5172 372.086 65.1961 374.548 72.632 385.141C72.632 385.141 65.4464 402.737 68.75 418.636Z" fill="#668DDB"/>
<path fill-rule="evenodd" clip-rule="evenodd" d="M68.7501 418.636H196.55C196.55 418.636 194.584 381.796 171.09 392.599C170.858 380.76 168.444 366.98 161.149 356.358C158.069 351.874 153.822 348.228 148.799 345.256C136.803 338.152 117.533 337.971 99.8078 348.774C83.9814 358.419 65.2892 385.304 68.7501 418.636Z" stroke="#0D2E3A" stroke-width="0.00219619" stroke-miterlimit="2.28659" stroke-linecap="round" stroke-linejoin="round"/>
<path fill-rule="evenodd" clip-rule="evenodd" d="M216.811 435.546L193.214 435.604C193.214 435.604 194.636 426.779 202.535 426.135C205.56 425.889 212.681 428.447 216.811 435.546Z" stroke="#0F303C" stroke-width="0.00219619" stroke-miterlimit="2.28659" stroke-linecap="round" stroke-linejoin="round"/>
<path d="M113.582 369.29C113.582 369.29 121.536 389.407 127.909 424.562" stroke="#668DDB" stroke-width="0.00219619" stroke-miterlimit="2.28659" stroke-linecap="round" stroke-linejoin="round"/>
<path fill-rule="evenodd" clip-rule="evenodd" d="M118.005 382.563C118.005 382.563 115.719 374.591 120.745 372.086C120.745 372.086 123.719 376.893 118.005 382.563Z" fill="#668DDB"/>
<path fill-rule="evenodd" clip-rule="evenodd" d="M117.486 382.564C117.486 382.564 111.046 381.443 109.11 375.58C109.186 374.857 116.593 376.227 117.486 382.564Z" fill="#668DDB"/>
<path fill-rule="evenodd" clip-rule="evenodd" d="M122.675 398.939C122.675 398.939 116.234 397.819 114.299 391.956C114.374 391.233 121.781 392.603 122.675 398.939Z" fill="#668DDB"/>
<path fill-rule="evenodd" clip-rule="evenodd" d="M122.823 398.941C122.823 398.941 126.909 393.826 124.486 388.148C123.952 387.656 119.307 393.6 122.823 398.941Z" fill="#668DDB"/>
<path fill-rule="evenodd" clip-rule="evenodd" d="M110.545 360.041L111.88 363.941C111.935 364.1 112.108 364.183 112.267 364.128C112.426 364.074 112.512 363.901 112.457 363.742L111.127 359.857C111.771 359.675 112.462 359.552 113.202 359.499L114.423 363.066C114.477 363.225 114.65 363.308 114.81 363.254C114.969 363.199 115.054 363.026 115 362.867L113.838 359.473C114.423 359.466 115.036 359.501 115.68 359.587C116.024 360.153 116.318 360.776 116.547 361.447C117.842 365.228 116.593 369.09 113.761 370.065C110.929 371.039 107.578 368.759 106.284 364.978C106.1 364.439 105.967 363.899 105.883 363.368C106.292 362.878 106.756 362.395 107.28 361.947L108.375 365.146C108.43 365.305 108.603 365.389 108.762 365.334C108.921 365.279 109.007 365.107 108.952 364.948L107.785 361.537C108.12 361.284 108.475 361.042 108.854 360.822L109.697 363.284C109.752 363.445 109.925 363.529 110.084 363.474C110.243 363.419 110.329 363.247 110.274 363.086L109.398 360.529C109.761 360.345 110.143 360.182 110.545 360.041Z" fill="#FDDB81"/>
<path fill-rule="evenodd" clip-rule="evenodd" d="M73.5018 366.075C73.5018 366.075 89.6376 388.349 102.22 421.511C102.367 421.899 102.801 422.095 103.188 421.947C103.575 421.799 103.77 421.363 103.623 420.976C90.9603 387.604 74.7162 365.19 74.7162 365.19C74.4728 364.854 74.0031 364.779 73.6681 365.025C73.3329 365.268 73.2584 365.739 73.5018 366.075Z" fill="#668DDB"/>
<path fill-rule="evenodd" clip-rule="evenodd" d="M88.7822 389.284C88.7912 388.828 88.4102 388.103 88.3097 387.642C88.0628 386.501 87.9017 385.322 87.9257 384.156C87.9625 382.356 88.5218 380.685 89.4793 379.168C89.5496 379.058 90.2918 377.812 90.5016 377.932C91.1267 378.288 91.2346 380.267 91.2981 380.841C91.616 383.722 91.068 386.907 88.9975 389.061" fill="#668DDB"/>
<path fill-rule="evenodd" clip-rule="evenodd" d="M88.3289 388.803C88.2313 388.906 87.8111 388.868 87.659 388.863C87.0282 388.851 86.3963 388.761 85.7737 388.663C83.8003 388.349 81.7742 387.855 80.1195 386.682C79.7743 386.436 79.4434 386.173 79.1332 385.884C78.9316 385.696 78.0354 384.939 78.0779 384.59C78.1064 384.357 78.7768 384.372 78.9101 384.365C79.8221 384.322 80.7404 384.485 81.6224 384.706C82.4556 384.916 83.2645 385.215 84.0525 385.556C85.2874 386.09 86.4496 386.842 87.4134 387.785" fill="#668DDB"/>
<path fill-rule="evenodd" clip-rule="evenodd" d="M95.8382 404.569C95.8117 404.662 95.1976 404.582 95.116 404.577C94.3321 404.511 93.5601 404.338 92.8005 404.14C90.7618 403.609 88.5956 402.819 87.0385 401.339C86.4487 400.777 85.9419 400.11 85.5374 399.406C85.4914 399.326 85.1867 398.899 85.2743 398.791C85.4654 398.553 86.4927 398.902 86.7036 398.952C87.007 399.027 87.3089 399.112 87.6073 399.205C88.1614 399.376 88.7092 399.571 89.2457 399.792C90.1515 400.166 91.034 400.614 91.8845 401.101C93.1071 401.801 94.3321 402.633 95.3206 403.646" fill="#668DDB"/>
<path fill-rule="evenodd" clip-rule="evenodd" d="M95.664 403.197C95.709 402.836 95.5387 402.287 95.5354 401.9C95.5264 400.86 95.6308 399.819 95.8381 398.798C96.018 397.916 96.2674 397.043 96.6118 396.21C96.9845 395.308 97.4635 394.453 98.0526 393.675C98.1156 393.592 98.5211 392.983 98.6812 393.068C98.9471 393.209 99.0404 394.021 99.0902 394.262C99.149 394.55 99.1892 394.841 99.2168 395.132C99.2653 395.646 99.2815 396.16 99.2623 396.677C99.182 398.836 98.5854 401.063 97.4688 402.921C97.1644 403.428 96.6598 404.343 96.0607 404.586" fill="#668DDB"/>
<path fill-rule="evenodd" clip-rule="evenodd" d="M71.1676 355.415C71.862 355.285 72.6087 355.227 73.4109 355.262C73.7728 355.633 74.1148 356.039 74.4307 356.483C76.9536 360.012 76.8676 364.41 74.2386 366.298C71.6094 368.189 67.4265 366.858 64.9036 363.327C64.5056 362.77 64.1727 362.193 63.9045 361.606C64.2152 360.977 64.5914 360.315 65.0424 359.666L66.6418 361.917C66.8127 362.158 67.1464 362.213 67.3862 362.043C67.6264 361.87 67.6824 361.536 67.5116 361.296L65.7193 358.773C66.0492 358.374 66.4107 357.99 66.8062 357.632L69.2123 361.02C69.3831 361.26 69.7168 361.316 69.9569 361.145C70.1968 360.974 70.2531 360.638 70.082 360.398L67.6364 356.955C68.3485 356.436 69.1535 356.002 70.0605 355.703L71.8427 358.214C72.0136 358.454 72.3473 358.509 72.5872 358.339C72.8273 358.166 72.8833 357.832 72.7125 357.592L71.1676 355.415Z" fill="#FDDB81"/>
<path fill-rule="evenodd" clip-rule="evenodd" d="M180.872 356.941C180.872 356.941 176.358 363.463 170.244 374.251C170.116 374.477 169.808 375.164 169.808 375.164L169.259 372.895L169.577 372.27L179.657 356.056C179.901 355.72 180.37 355.644 180.705 355.89C181.041 356.133 181.115 356.605 180.872 356.941Z" fill="#668DDB"/>
<path fill-rule="evenodd" clip-rule="evenodd" d="M175.121 364.879C175.113 364.46 175.448 363.794 175.536 363.37C175.753 362.322 175.894 361.24 175.873 360.169C175.841 358.515 175.35 356.981 174.509 355.587C174.447 355.486 173.795 354.341 173.611 354.452C173.062 354.779 172.968 356.596 172.912 357.124C172.633 359.77 173.114 362.696 174.932 364.674" fill="#668DDB"/>
<path fill-rule="evenodd" clip-rule="evenodd" d="M174.567 364.809C174.665 364.912 175.085 364.874 175.237 364.869C175.868 364.857 176.5 364.766 177.123 364.669C179.096 364.355 181.122 363.861 182.777 362.688C183.122 362.442 183.453 362.179 183.763 361.89C183.965 361.702 184.861 360.945 184.818 360.596C184.79 360.363 184.119 360.378 183.986 360.37C183.074 360.328 182.156 360.491 181.274 360.712C180.441 360.922 179.632 361.221 178.844 361.562C177.609 362.096 176.447 362.848 175.483 363.791" fill="#668DDB"/>
<path fill-rule="evenodd" clip-rule="evenodd" d="M170.585 372.048C170.608 372.129 171.137 372.059 171.207 372.055C171.882 371.998 172.547 371.848 173.201 371.675C174.956 371.212 176.821 370.525 178.161 369.237C178.669 368.748 179.105 368.168 179.454 367.555C179.493 367.485 179.755 367.114 179.68 367.02C179.516 366.813 178.631 367.116 178.45 367.16C178.188 367.225 177.928 367.299 177.671 367.38C177.194 367.528 176.723 367.699 176.261 367.891C175.481 368.216 174.721 368.607 173.989 369.03C172.937 369.639 171.882 370.363 171.031 371.245" fill="#668DDB"/>
<path fill-rule="evenodd" clip-rule="evenodd" d="M172.217 368.905C172.169 368.6 172.352 368.138 172.355 367.812C172.365 366.936 172.253 366.059 172.031 365.199C171.838 364.455 171.571 363.72 171.202 363.019C170.803 362.258 170.29 361.538 169.659 360.883C169.591 360.813 169.157 360.3 168.985 360.371C168.701 360.49 168.601 361.174 168.547 361.377C168.484 361.62 168.441 361.865 168.412 362.11C168.36 362.543 168.342 362.976 168.363 363.412C168.449 365.231 169.088 367.107 170.284 368.672C170.61 369.099 171.151 369.87 171.792 370.075" fill="#668DDB"/>
<path fill-rule="evenodd" clip-rule="evenodd" d="M183.206 346.281C182.512 346.15 181.765 346.093 180.963 346.128C180.601 346.499 180.259 346.905 179.943 347.349C177.42 350.877 177.506 355.276 180.135 357.164C182.765 359.055 186.948 357.723 189.47 354.192C189.868 353.636 190.201 353.059 190.469 352.472C190.159 351.843 189.783 351.181 189.332 350.531L187.732 352.783C187.561 353.024 187.228 353.079 186.988 352.908C186.748 352.735 186.692 352.402 186.862 352.161L188.655 349.638C188.325 349.24 187.963 348.856 187.568 348.497L185.162 351.885C184.991 352.126 184.657 352.181 184.417 352.011C184.177 351.84 184.121 351.504 184.292 351.263L186.738 347.82C186.025 347.301 185.221 346.867 184.314 346.569L182.531 349.079C182.36 349.32 182.027 349.375 181.787 349.205C181.547 349.032 181.491 348.698 181.662 348.457L183.206 346.281Z" fill="#FDDB81"/>
<path fill-rule="evenodd" clip-rule="evenodd" d="M382.499 391.682C382.499 391.682 375.763 379.969 376.453 372.045C376.453 372.045 380.735 373.238 383.942 377.915C383.942 377.915 380.133 362.014 382.499 355.514C382.499 355.514 389.443 358.714 392.77 366.315C392.77 366.315 388.175 380.069 387.724 393.35L382.499 391.682Z" fill="#668DDB"/>
<path fill-rule="evenodd" clip-rule="evenodd" d="M490.707 421.241L360.729 421.994C360.729 421.994 364.23 382.547 387.724 393.351C387.956 381.512 390.371 367.732 397.665 357.109C400.745 352.626 404.695 348.706 409.718 345.732C421.714 338.628 441.281 338.723 459.007 349.526C474.833 359.171 494.168 387.909 490.707 421.241Z" stroke="#0D2E3A" stroke-width="0.00219619" stroke-miterlimit="2.28659" stroke-linecap="round" stroke-linejoin="round"/>
<path fill-rule="evenodd" clip-rule="evenodd" d="M469.863 424.897C469.863 424.897 482.73 402.899 498.481 403.97C498.481 403.97 498.534 409.131 493.213 416.097C493.213 416.097 496.953 413.477 503.524 413.763C503.524 413.763 502.826 418.553 496.365 425.539L469.863 424.897Z" fill="#668DDB"/>
<path fill-rule="evenodd" clip-rule="evenodd" d="M480.404 391.646C480.486 391.235 480.956 390.657 481.132 390.262C481.568 389.285 481.938 388.258 482.147 387.207C482.469 385.585 482.318 383.981 481.795 382.439C481.756 382.327 481.364 381.069 481.161 381.137C480.555 381.338 480.073 383.093 479.906 383.596C479.067 386.121 478.911 389.082 480.264 391.405" fill="#668DDB"/>
<path d="M492.205 380.676C492.205 380.676 469.072 396.863 459.889 425.539" stroke="#668DDB" stroke-width="0.00219619" stroke-miterlimit="2.28659" stroke-linecap="round" stroke-linejoin="round"/>
<path fill-rule="evenodd" clip-rule="evenodd" d="M495.744 372.718C495.094 372.441 494.377 372.224 493.586 372.086C493.153 372.371 492.732 372.694 492.329 373.059C489.11 375.963 488.252 380.278 490.416 382.687C492.58 385.1 496.95 384.699 500.17 381.793C500.677 381.334 501.126 380.843 501.514 380.327C501.345 379.646 501.119 378.918 500.817 378.187L498.773 380.042C498.555 380.241 498.217 380.223 498.02 380.005C497.822 379.784 497.839 379.446 498.057 379.248L500.347 377.169C500.11 376.709 499.84 376.256 499.53 375.821L496.455 378.613C496.237 378.811 495.899 378.793 495.701 378.575C495.503 378.357 495.52 378.016 495.739 377.818L498.864 374.981C498.279 374.321 497.586 373.724 496.764 373.238L494.486 375.306C494.268 375.504 493.93 375.487 493.732 375.268C493.535 375.048 493.551 374.71 493.77 374.512L495.744 372.718Z" fill="#FDDB81"/>
<path fill-rule="evenodd" clip-rule="evenodd" d="M481.29 391.186C481.364 391.307 481.782 391.361 481.932 391.388C482.551 391.512 483.187 391.56 483.816 391.598C485.811 391.716 487.895 391.669 489.763 390.879C490.152 390.713 490.532 390.527 490.897 390.312C491.134 390.172 492.171 389.625 492.204 389.275C492.226 389.041 491.568 388.912 491.44 388.876C490.558 388.638 489.626 388.6 488.718 388.626C487.859 388.652 487.005 388.77 486.162 388.933C484.842 389.19 483.546 389.674 482.402 390.388" fill="#668DDB"/>
<path fill-rule="evenodd" clip-rule="evenodd" d="M470.824 403.857C470.829 403.94 471.36 403.986 471.43 403.997C472.101 404.087 472.782 404.082 473.458 404.055C475.271 403.98 477.24 403.71 478.825 402.74C479.425 402.372 479.976 401.899 480.447 401.375C480.501 401.315 480.836 401.009 480.783 400.901C480.666 400.663 479.738 400.769 479.551 400.773C479.282 400.781 479.012 400.797 478.744 400.821C478.246 400.863 477.749 400.928 477.257 401.016C476.426 401.166 475.6 401.385 474.794 401.641C473.636 402.009 472.451 402.49 471.431 403.168" fill="#668DDB"/>
<path fill-rule="evenodd" clip-rule="evenodd" d="M471.874 401.358C471.892 401.051 472.17 400.638 472.243 400.321C472.44 399.467 472.518 398.587 472.485 397.699C472.456 396.931 472.353 396.156 472.142 395.391C471.915 394.563 471.568 393.749 471.092 392.973C471.041 392.891 470.726 392.296 470.544 392.329C470.24 392.383 469.996 393.03 469.9 393.217C469.787 393.441 469.692 393.671 469.611 393.904C469.468 394.316 469.358 394.735 469.285 395.164C468.98 396.96 469.203 398.929 470.036 400.716C470.263 401.203 470.626 402.072 471.209 402.41" fill="#668DDB"/>
<path fill-rule="evenodd" clip-rule="evenodd" d="M368.263 385.991C368.263 385.991 364.221 378.753 368.543 375.163C368.543 375.163 372.533 379.162 368.263 385.991Z" fill="#668DDB"/>
<path fill-rule="evenodd" clip-rule="evenodd" d="M368.391 386.788C368.391 386.788 361.985 388.093 358.055 383.337C357.863 382.636 365.26 381.212 368.391 386.788Z" fill="#668DDB"/>
<path fill-rule="evenodd" clip-rule="evenodd" d="M376.85 403.544C376.85 403.544 370.41 402.424 368.474 396.561C368.55 395.838 375.957 397.208 376.85 403.544Z" fill="#668DDB"/>
<path fill-rule="evenodd" clip-rule="evenodd" d="M378.155 404.428C378.155 404.428 382.241 399.313 379.818 393.635C379.284 393.143 374.639 399.087 378.155 404.428Z" fill="#668DDB"/>
<path d="M358.053 374.35C358.053 374.35 378.714 392.514 383.942 425.583" stroke="#668DDB" stroke-width="0.00219619" stroke-miterlimit="2.28659" stroke-linecap="round" stroke-linejoin="round"/>
<path fill-rule="evenodd" clip-rule="evenodd" d="M352.086 369.071L355.051 371.927C355.172 372.044 355.364 372.039 355.48 371.917C355.597 371.796 355.594 371.603 355.473 371.486L352.519 368.64C353.009 368.184 353.567 367.757 354.201 367.371L356.913 369.984C357.034 370.101 357.226 370.096 357.343 369.974C357.46 369.852 357.457 369.66 357.336 369.543L354.755 367.057C355.272 366.782 355.833 366.533 356.445 366.314C357.009 366.66 357.554 367.079 358.065 367.571C360.94 370.34 361.591 374.348 359.516 376.512C357.441 378.677 353.421 378.184 350.546 375.414C350.137 375.02 349.772 374.6 349.456 374.166C349.596 373.543 349.788 372.9 350.05 372.262L352.483 374.606C352.604 374.722 352.796 374.717 352.913 374.596C353.029 374.474 353.027 374.281 352.906 374.165L350.312 371.666C350.495 371.288 350.701 370.91 350.937 370.54L352.809 372.344C352.932 372.462 353.124 372.457 353.241 372.335C353.357 372.214 353.355 372.021 353.232 371.903L351.288 370.03C351.527 369.701 351.792 369.38 352.086 369.071Z" fill="#FDDB81"/>
<path fill-rule="evenodd" clip-rule="evenodd" d="M173.423 118.394L176.939 114.444L182.822 123.203L179.177 126.148L173.423 118.394ZM182.606 106.15L188.465 114.184L192.005 111.572L186.258 102.22L182.606 106.15Z" fill="white"/>
<path fill-rule="evenodd" clip-rule="evenodd" d="M370.407 95.789L380.225 87.4459L382.499 92.0749L372.691 99.2088L370.407 95.789ZM359.073 89.4842L364.599 78.9917L368.474 82.4579L362.843 90.6957L359.073 89.4842Z" fill="white"/>
</svg>
