<svg width="521" height="537" viewBox="0 0 521 537" fill="none" xmlns="http://www.w3.org/2000/svg">
<path fill-rule="evenodd" clip-rule="evenodd" d="M280.689 492.165C279.076 490.446 276.389 490.379 274.692 492.013C272.995 493.647 272.929 496.368 274.542 498.087C274.542 498.087 277.661 501.412 281.144 505.122C287.922 512.344 297.323 516.438 307.162 516.454C328.798 516.491 370.756 516.562 391.626 516.598C400.634 516.613 409.617 513.835 416.448 507.892L415.05 506.242C408.606 511.844 400.125 514.435 391.63 514.421L307.165 514.277C297.914 514.262 289.075 510.412 282.702 503.623C279.222 499.912 276.1 496.587 276.1 496.587C275.302 495.737 275.336 494.394 276.173 493.59C277.012 492.782 278.338 492.817 279.132 493.664L280.689 492.165Z" fill="#F61D37"/>
<path fill-rule="evenodd" clip-rule="evenodd" d="M416.449 507.894C417.92 506.615 419.01 503.885 417.218 501.792C416.389 500.829 415.501 500.334 414.509 500.231C413.588 500.135 412.542 500.391 411.311 501.074C407.75 503.064 400.509 507.932 391.63 508.007C370.764 508.186 328.809 507.9 307.176 507.863C299.659 507.85 292.474 504.721 287.295 499.201C283.812 495.49 280.689 492.165 280.689 492.165L279.132 493.664C279.132 493.664 282.254 496.99 285.738 500.7C291.321 506.653 299.068 510.026 307.172 510.04C328.809 510.077 370.778 510.363 391.648 510.184C400.974 510.102 408.611 505.068 412.347 502.981C413.222 502.496 413.914 502.262 414.537 502.444C414.92 502.557 415.257 502.83 415.593 503.222C416.491 504.265 415.782 505.603 415.051 506.244L416.449 507.894Z" fill="#F61D37"/>
<path d="M317.717 536.872C322.66 536.872 326.667 532.814 326.667 527.808C326.667 522.803 322.66 518.745 317.717 518.745C312.774 518.745 308.767 522.803 308.767 527.808C308.767 532.814 312.774 536.872 317.717 536.872Z" fill="#F61D37"/>
<path d="M380.7 536.188C385.643 536.188 389.65 532.13 389.65 527.124C389.65 522.118 385.643 518.06 380.7 518.06C375.757 518.06 371.75 522.118 371.75 527.124C371.75 532.13 375.757 536.188 380.7 536.188Z" fill="#F61D37"/>
<path fill-rule="evenodd" clip-rule="evenodd" d="M435.584 516.385C437.398 512.266 470.19 470.473 466.401 496.968C466.401 496.968 498.55 472.137 510.011 485.261C511.517 486.983 511.324 492.267 507.671 495.298C507.671 495.298 519.492 498.731 519.799 505.331C520.05 510.786 513.434 517.79 501.913 517.769L435.584 516.385Z" fill="#FFD274"/>
<path fill-rule="evenodd" clip-rule="evenodd" d="M268.824 515.856C268.824 515.856 89.5303 517.202 33.2106 515.856C17.8657 515.489 -7.96567 506.792 3.93036 479.862C6.32046 474.452 17.6934 454.949 44.241 460.367C44.241 460.367 44.6276 440.403 69.4347 441.622C78.3681 442.058 98.5562 453.825 116.122 469.63C116.122 469.63 130.422 446.651 161.977 469.63C171.11 476.284 224.648 508.82 268.824 515.856Z" fill="#FFD274"/>
<path fill-rule="evenodd" clip-rule="evenodd" d="M272.97 499.949C272.97 499.949 242.003 458.745 238.736 485.17C238.736 485.17 228.464 483.418 228.091 492.387C227.952 495.809 231.742 502.888 272.97 499.949Z" fill="#FFD274"/>
<path fill-rule="evenodd" clip-rule="evenodd" d="M408.217 30.1414L412.983 47.0057L417.483 46.1451L414.426 28.4473L408.217 30.1414Z" fill="#F61D37"/>
<path fill-rule="evenodd" clip-rule="evenodd" d="M439.735 29.7348L434.766 46.0876L440.509 47.7124L447.273 31.9391L439.735 29.7348Z" fill="#F61D37"/>
<path fill-rule="evenodd" clip-rule="evenodd" d="M451.473 54.1642L454.859 59.4228L469.767 51.8199L464.482 44.6393L451.473 54.1642Z" fill="#F61D37"/>
<path fill-rule="evenodd" clip-rule="evenodd" d="M82.0956 307.808L86.73 397.534L66.5974 397.911C66.5974 397.911 63.2536 409.707 55.4312 411.891V308.305L82.0956 307.808Z" fill="black"/>
<path fill-rule="evenodd" clip-rule="evenodd" d="M70.6241 402.726C70.4256 402.204 70.6549 401.605 71.1626 401.358C71.6975 401.097 72.3403 401.326 72.5968 401.87C72.6685 402.019 72.7398 402.258 72.7727 402.577C72.8136 402.98 72.8093 403.615 72.7813 404.41C72.6979 406.783 72.4141 410.738 72.9763 413.807C73.1446 414.725 73.3865 415.56 73.7552 416.22C74.0414 416.732 74.399 417.131 74.8934 417.316C75.3377 417.479 75.8719 417.465 76.5143 417.287C77.0865 417.127 77.6784 417.468 77.836 418.049C77.9933 418.626 77.6568 419.228 77.0847 419.388C75.5089 419.827 74.2912 419.584 73.3446 418.941C72.0591 418.074 71.2536 416.336 70.8628 414.203C70.2719 410.981 70.5453 406.826 70.6331 404.334C70.6585 403.601 70.6277 402.82 70.6241 402.726Z" fill="black"/>
<path fill-rule="evenodd" clip-rule="evenodd" d="M73.867 406.046C72.8706 405.132 71.8495 404.192 71.01 403.136C70.9918 403.114 70.7632 402.795 70.6682 402.614C70.5589 402.403 70.5274 402.218 70.5199 402.117C70.4966 401.797 70.5998 401.561 70.7159 401.395C70.8645 401.184 71.0695 401.028 71.349 400.963C71.6836 400.879 72.2045 400.945 72.748 401.351C73.6423 402.026 75.0385 403.942 75.2865 404.283C75.3549 404.381 75.4312 404.493 75.514 404.62L75.6845 404.776C76.7479 405.752 77.9636 406.913 79.2974 407.842C80.5045 408.684 81.8061 409.352 83.188 409.428C83.7803 409.46 84.2353 409.972 84.203 410.574C84.1708 411.173 83.6638 411.634 83.0716 411.601C81.2802 411.503 79.5701 410.654 78.008 409.555C78.7955 411.478 79.4433 413.561 79.5181 415.244C79.612 417.349 78.8678 418.891 77.0847 419.388C76.5129 419.547 75.9206 419.206 75.7633 418.626C75.6057 418.045 75.9425 417.447 76.5143 417.287C76.9568 417.163 77.1857 416.841 77.2903 416.412C77.4595 415.727 77.3738 414.852 77.1735 413.905C76.5659 411.032 74.8247 407.581 73.867 406.046Z" fill="black"/>
<path fill-rule="evenodd" clip-rule="evenodd" d="M83.0715 411.601C84.4742 411.677 85.2632 411.191 85.6895 410.589C86.122 409.976 86.2259 409.116 85.9951 408.183C85.6508 406.794 84.5527 405.204 83.6899 404.53C80.6893 402.171 76.3724 401.696 72.7168 401.282C72.1275 401.213 71.5951 401.645 71.5288 402.24C71.4625 402.839 71.8874 403.376 72.4771 403.445C75.7626 403.818 79.675 404.127 82.3718 406.249C82.9519 406.703 83.6785 407.777 83.9099 408.713C83.968 408.949 84.0489 409.167 83.94 409.323C83.9089 409.366 83.8458 409.373 83.7745 409.392C83.614 409.431 83.4194 409.439 83.188 409.428C82.5957 409.395 82.0888 409.856 82.0565 410.455C82.0243 411.053 82.4789 411.569 83.0715 411.601Z" fill="black"/>
<path fill-rule="evenodd" clip-rule="evenodd" d="M309.559 479.971L376.526 487.674L374.684 497.028C374.684 497.028 391.362 497.757 390.065 506.204H302.967L309.559 479.971Z" fill="black"/>
<path fill-rule="evenodd" clip-rule="evenodd" d="M381.515 495.5C381.647 495.976 381.443 496.494 380.999 496.745C380.479 497.035 379.827 496.843 379.54 496.317C379.386 496.037 379.3 495.566 379.415 494.992C379.548 494.328 379.942 493.392 380.21 492.808C381.235 490.587 382.4 488.381 384.177 486.676C384.617 486.252 385.57 485.395 386.434 485.116C387.061 484.913 387.659 484.953 388.168 485.261C388.677 485.569 388.845 486.237 388.541 486.752C388.254 487.238 387.648 487.416 387.154 487.177C387.075 487.206 386.846 487.293 386.713 487.376C386.28 487.652 385.882 488.037 385.656 488.254C384.076 489.771 383.07 491.752 382.156 493.73C381.948 494.18 381.579 495.304 381.515 495.5Z" fill="black"/>
<path fill-rule="evenodd" clip-rule="evenodd" d="M386.96 487.057C386.534 486.723 386.412 486.114 386.695 485.635C387 485.119 387.659 484.953 388.168 485.261C388.845 485.671 389.146 486.386 389.117 487.231C389.089 488.011 388.745 488.915 388.526 489.386C387.408 491.803 385.345 493.472 383.288 495.029C383.474 495.007 383.611 494.989 383.671 494.985C385.022 494.883 386.753 494.706 388.236 494.14C389.056 493.828 389.802 493.396 390.307 492.75H390.289C389.698 492.695 389.261 492.166 389.314 491.567C389.365 490.972 389.888 490.526 390.479 490.58C391.389 490.66 392.034 491.106 392.345 491.651C392.689 492.249 392.75 493.069 392.095 493.965C391.353 494.981 390.249 495.696 388.996 496.175C387.312 496.821 385.355 497.042 383.825 497.155C383.517 497.177 381.522 497.441 380.637 497.282C379.931 497.158 379.566 496.745 379.437 496.404C379.318 496.092 379.297 495.537 379.777 494.992C380.246 494.455 381.618 493.574 381.805 493.436C383.646 492.042 385.577 490.627 386.577 488.465C386.695 488.211 386.882 487.772 386.95 487.34C386.96 487.257 386.96 487.126 386.96 487.057Z" fill="black"/>
<path fill-rule="evenodd" clip-rule="evenodd" d="M390.479 490.58C388.981 490.446 387.408 490.921 386.058 491.538C384.886 492.079 383.772 492.761 382.668 493.432C382.16 493.74 381.998 494.412 382.303 494.927C382.607 495.442 383.27 495.605 383.779 495.297C384.807 494.669 385.846 494.027 386.946 493.523C387.967 493.055 389.153 492.648 390.289 492.75C390.88 492.801 391.403 492.358 391.453 491.759C391.507 491.161 391.07 490.635 390.479 490.58Z" fill="black"/>
<path fill-rule="evenodd" clip-rule="evenodd" d="M340.255 337.401C229.75 254.331 262.708 184.573 262.708 184.573C263.049 183.849 263.905 183.541 264.618 183.884C265.335 184.228 265.639 185.094 265.299 185.818C265.299 185.818 233.623 254.036 342.706 335.627C343.161 335.968 343.376 336.548 343.254 337.107L312.323 480.29L309.482 479.971L340.255 337.401Z" fill="white"/>
<path fill-rule="evenodd" clip-rule="evenodd" d="M320.399 192.281C320.399 192.281 369.58 244.938 403.244 280.983C421.829 300.877 427.948 329.585 419.127 355.474C401.503 407.182 373.959 487.38 373.959 487.38L376.527 487.677C376.527 487.677 404.215 408.129 421.836 356.421C431.008 329.509 424.645 299.669 405.33 278.987C371.662 242.943 322.481 190.287 322.481 190.287C321.94 189.705 321.03 189.68 320.456 190.23C319.883 190.78 319.858 191.699 320.399 192.281Z" fill="white"/>
<path fill-rule="evenodd" clip-rule="evenodd" d="M212.875 301.483L261.458 187.516C261.773 186.781 262.615 186.442 263.343 186.759C264.07 187.077 264.403 187.931 264.091 188.667L215.154 303.465C214.935 303.972 214.451 304.314 213.907 304.339L82.2397 310.83L82.0208 307.724L212.875 301.483Z" fill="white"/>
<path fill-rule="evenodd" clip-rule="evenodd" d="M86.7143 397.505C86.7143 397.505 184.728 394.33 235.672 392.534C254.572 391.866 271.665 380.978 280.443 364.015L308.952 308.911C309.317 308.203 309.049 307.325 308.346 306.955C307.648 306.581 306.781 306.857 306.412 307.565L277.903 362.665C269.605 378.706 253.443 389 235.572 389.631C184.628 391.427 86.5724 394.479 86.5724 394.479L86.7143 397.505Z" fill="white"/>
<path fill-rule="evenodd" clip-rule="evenodd" d="M340.04 345.967L341.853 346.907C341.853 346.907 352.974 351.294 360.014 350.064C360.77 349.93 361.365 349.331 361.501 348.565C361.637 347.8 361.286 347.031 360.627 346.635C354.586 343.028 341.853 335.441 341.853 335.441C341.853 335.441 340.714 346.414 340.04 345.967Z" fill="#6A8FDB"/>
<path fill-rule="evenodd" clip-rule="evenodd" d="M380.569 474.503C379.927 476.553 379.34 478.436 378.813 480.116C378.405 480.225 378.011 480.334 377.631 480.439C372.529 481.865 370.028 483.621 367.896 486.683L362.64 486.077C365.145 481.633 368.556 477.703 376.298 475.541C377.577 475.185 379.01 474.811 380.569 474.503ZM321.786 466.793C324.344 466.793 326.418 468.93 326.418 471.56C326.418 474.191 324.344 476.324 321.786 476.324C319.227 476.324 317.153 474.191 317.153 471.56C317.153 468.93 319.227 466.793 321.786 466.793ZM363.998 461.629C363.998 461.629 355.217 469.866 344.089 465.972C338.79 464.115 330.449 460.817 326.719 450.653C326.235 449.34 324.791 448.669 323.494 449.155C322.197 449.645 321.535 451.107 322.015 452.42C326.436 464.474 336.167 468.574 342.451 470.773C356.392 475.653 367.402 465.359 367.402 465.359C368.419 464.409 368.48 462.798 367.542 461.771C366.603 460.74 365.012 460.679 363.998 461.629ZM372.83 398.35C372.83 398.35 382.228 405.857 380.15 417.595C379.161 423.183 377.233 432.04 367.896 437.345C366.689 438.03 366.259 439.58 366.933 440.802C367.613 442.025 369.143 442.461 370.347 441.775C381.421 435.487 383.912 425.117 385.087 418.491C387.691 403.786 375.943 394.363 375.943 394.363C374.858 393.496 373.278 393.681 372.421 394.78C371.562 395.879 371.744 397.48 372.83 398.35ZM327.274 401.402C331.043 402.879 334.995 405.455 338.109 409.899C341.95 415.393 347.507 424.464 344.171 436.869C343.809 438.219 342.43 439.021 341.093 438.651C339.757 438.284 338.969 436.887 339.331 435.534C342.143 425.07 337.256 417.472 334.014 412.835C331.746 409.595 328.915 407.603 326.149 406.387L327.274 401.402ZM360.799 413.753C363.353 413.753 365.431 415.89 365.431 418.517C365.431 421.147 363.353 423.285 360.799 423.285C358.241 423.285 356.163 421.147 356.163 418.517C356.163 415.89 358.241 413.753 360.799 413.753ZM400.719 411.373C398.762 410.814 397.326 408.967 397.326 406.779C397.326 404.148 399.4 402.015 401.958 402.015C402.574 402.015 403.166 402.138 403.707 402.363C402.743 405.241 401.743 408.256 400.719 411.373ZM353.726 400.821C353.726 400.821 348.087 390.128 354.633 380.219C357.75 375.499 363.02 368.162 373.675 367.092C375.051 366.95 376.058 365.706 375.922 364.312C375.786 362.916 374.557 361.896 373.177 362.034C360.544 363.307 354.16 371.798 350.462 377.393C342.261 389.813 349.302 403.209 349.302 403.209C349.95 404.446 351.473 404.914 352.694 404.257C353.916 403.597 354.378 402.059 353.726 400.821ZM113.317 395.397C109.495 392.258 105.85 387.581 102.761 380.749C102.185 379.475 102.739 377.966 103.998 377.382C105.256 376.801 106.746 377.36 107.322 378.634C111.261 387.349 116.117 392.084 121.093 394.352C121.678 394.617 122.264 394.849 122.85 395.052L117.59 395.241L113.317 395.397ZM138.601 394.479C141.98 393.263 144.146 391.823 144.146 391.823C145.307 391.061 146.862 391.395 147.615 392.57C147.924 393.053 148.051 393.601 148.013 394.134L141.698 394.366L138.601 394.479ZM211.893 391.718C211.524 391.289 211.162 390.847 210.815 390.382C206.949 385.237 204.351 377.676 205.104 366.493C205.197 365.093 206.397 364.037 207.777 364.131C209.16 364.225 210.202 365.441 210.109 366.838C209.464 376.399 211.499 382.908 214.806 387.302C216.057 388.967 217.479 390.324 218.984 391.431C216.716 391.525 214.351 391.62 211.893 391.718ZM404.445 387.142C404.445 387.142 397.261 377.447 402.238 366.642C404.606 361.493 408.705 353.431 419.073 350.724C420.413 350.372 421.223 348.986 420.875 347.629C420.532 346.272 419.163 345.456 417.823 345.804C405.527 349.015 400.5 358.391 397.691 364.494C391.457 378.035 400.432 390.186 400.432 390.186C401.263 391.308 402.836 391.536 403.943 390.698C405.05 389.856 405.276 388.263 404.445 387.142ZM184.929 354.03C184.929 354.03 188.412 367.676 179.88 376.95C176.162 380.996 170.172 384.127 160.759 385.103C159.382 385.248 158.379 386.496 158.52 387.89C158.661 389.283 159.893 390.303 161.27 390.157C172.281 389.018 179.201 385.143 183.55 380.415C193.847 369.218 189.791 352.781 189.791 352.781C189.451 351.421 188.085 350.601 186.742 350.946C185.402 351.29 184.589 352.673 184.929 354.03ZM250.176 362.607C252.712 362.607 254.769 364.69 254.769 367.255C254.769 369.824 252.712 371.907 250.176 371.907C247.643 371.907 245.586 369.824 245.586 367.255C245.586 364.69 247.643 362.607 250.176 362.607ZM84.4693 356.809L84.6119 356.969C92.5024 365.818 104.118 362.894 104.118 362.894C105.461 362.556 106.822 363.387 107.155 364.748C107.488 366.109 106.668 367.484 105.324 367.821C105.324 367.821 94.2547 370.593 84.8652 363.939L84.4693 356.809ZM130.224 358.293C132.781 358.293 134.857 360.43 134.857 363.061C134.857 365.691 132.781 367.825 130.224 367.825C127.667 367.825 125.591 365.691 125.591 363.061C125.591 360.43 127.667 358.293 130.224 358.293ZM225.082 363.656C225.082 363.656 226.296 349.618 237.396 343.758C242.233 341.203 248.915 340.271 258.108 342.535C259.452 342.865 260.81 342.027 261.136 340.666C261.465 339.302 260.638 337.93 259.29 337.597C248.535 334.952 240.735 336.265 235.078 339.251C221.682 346.323 220.087 363.191 220.087 363.191C219.962 364.585 220.976 365.822 222.355 365.952C223.735 366.079 224.956 365.053 225.082 363.656ZM345.561 356.345C348.119 356.345 350.197 358.478 350.197 361.109C350.197 363.739 348.119 365.876 345.561 365.876C343.007 365.876 340.928 363.739 340.928 361.109C340.928 358.478 343.007 356.345 345.561 356.345ZM121.401 351.308C121.401 351.308 129.533 342.415 140.921 345.434C146.346 346.871 154.914 349.512 159.401 359.36C159.981 360.633 161.472 361.188 162.729 360.601C163.986 360.013 164.535 358.503 163.955 357.23C158.635 345.557 148.624 342.227 142.192 340.521C127.921 336.737 117.723 347.854 117.723 347.854C116.782 348.881 116.842 350.492 117.857 351.443C118.872 352.397 120.46 352.335 121.401 351.308ZM288.043 346.497C288.168 343.594 287.799 341.018 287.075 338.732C283.252 326.664 269.795 323.076 269.795 323.076C268.459 322.713 267.663 321.32 268.022 319.963C268.384 318.609 269.759 317.808 271.096 318.17C271.096 318.17 287.24 322.615 291.851 337.183C291.98 337.586 292.098 337.992 292.209 338.409L288.043 346.497ZM207.683 323.733C207.683 323.733 201.317 333.994 189.572 333.159C183.98 332.76 175.077 331.77 168.87 322.931C168.068 321.788 166.501 321.523 165.373 322.336C164.245 323.145 163.981 324.734 164.783 325.877C172.142 336.352 182.589 337.753 189.221 338.224C203.936 339.273 211.929 326.436 211.929 326.436C212.667 325.253 212.316 323.682 211.145 322.934C209.973 322.187 208.422 322.546 207.683 323.733ZM393.349 328.558C395.907 328.558 397.985 330.696 397.985 333.326C397.985 335.957 395.907 338.09 393.349 338.09C390.794 338.09 388.716 335.957 388.716 333.326C388.716 330.696 390.794 328.558 393.349 328.558ZM363.762 333.05C363.762 333.05 362.451 321 372.164 314.266C376.793 311.055 384.374 306.229 394.66 309.245C395.989 309.636 397.379 308.86 397.766 307.514C398.15 306.168 397.383 304.756 396.054 304.368C383.858 300.79 374.818 306.269 369.329 310.075C357.159 318.515 358.775 333.602 358.775 333.602C358.925 334.995 360.165 336 361.54 335.851C362.916 335.699 363.912 334.444 363.762 333.05ZM133.387 306.476C136.178 311.273 138.232 317.51 137.005 325.413C136.79 326.799 135.505 327.746 134.138 327.528C132.77 327.31 131.835 326.008 132.05 324.625C133.256 316.853 130.599 311.03 127.627 306.799L133.387 306.476ZM251.842 321.868C251.842 321.868 239.897 321.091 235.028 310.239C232.706 305.068 229.324 296.669 234.035 286.934C234.644 285.675 234.132 284.151 232.889 283.534C231.645 282.917 230.141 283.439 229.532 284.695C223.946 296.24 227.708 306.208 230.459 312.34C236.565 325.939 251.516 326.936 251.516 326.936C252.895 327.027 254.092 325.968 254.181 324.567C254.271 323.17 253.225 321.962 251.842 321.868ZM333.179 315.485C335.737 315.485 337.811 317.622 337.811 320.253C337.811 322.884 335.737 325.017 333.179 325.017C330.624 325.017 328.546 322.884 328.546 320.253C328.546 317.622 330.624 315.485 333.179 315.485ZM91.7453 314.872C94.3024 314.872 96.3786 317.009 96.3786 319.636C96.3786 322.267 94.3024 324.404 91.7453 324.404C89.1879 324.404 87.1117 322.267 87.1117 319.636C87.1117 317.009 89.1879 314.872 91.7453 314.872ZM188.318 312.118C190.873 312.118 192.951 314.252 192.951 316.882C192.951 319.513 190.873 321.65 188.318 321.65C185.76 321.65 183.682 319.513 183.682 316.882C183.682 314.252 185.76 312.118 188.318 312.118ZM301.077 321.193C299.701 320.387 298.773 318.885 298.773 317.162C298.773 314.593 300.83 312.51 303.366 312.51C304.061 312.51 304.724 312.67 305.319 312.953L301.077 321.193ZM302.32 301.741C304.316 300.257 306.688 298.994 309.5 298.149C315.874 296.233 326.139 293.828 336.665 301.019C337.811 301.803 338.112 303.385 337.338 304.546C336.565 305.707 335.006 306.015 333.856 305.232C324.981 299.165 316.304 301.4 310.926 303.018C308.977 303.602 307.293 304.444 305.838 305.431L302.32 301.741ZM290.271 288.381C291.364 289.833 292.496 291.28 293.596 292.598C291.622 295.7 288.752 298.711 284.585 300.885C278.673 303.965 269.025 308.261 257.366 303.171C256.095 302.615 255.507 301.121 256.055 299.833C256.603 298.544 258.079 297.953 259.351 298.508C269.186 302.797 277.301 298.965 282.289 296.367C286.226 294.314 288.709 291.32 290.271 288.381ZM350.774 246.725C350.774 246.725 360.709 253.483 359.527 265.345C358.964 270.994 357.714 279.978 348.803 285.99C347.653 286.767 347.342 288.345 348.108 289.513C348.875 290.678 350.434 290.994 351.587 290.217C362.153 283.088 363.851 272.554 364.518 265.856C366.001 250.991 353.572 242.51 353.572 242.51C352.426 241.728 350.867 242.037 350.093 243.2C349.319 244.363 349.624 245.942 350.774 246.725ZM265.431 274.067C267.989 274.067 270.068 276.201 270.068 278.831C270.068 281.462 267.989 283.599 265.431 283.599C262.877 283.599 260.799 281.462 260.799 278.831C260.799 276.201 262.877 274.067 265.431 274.067ZM385.617 268.759C388.172 268.759 390.25 270.896 390.25 273.527C390.25 276.157 388.172 278.291 385.617 278.291C383.059 278.291 380.981 276.157 380.981 273.527C380.981 270.896 383.059 268.759 385.617 268.759ZM332.441 266.8C334.995 266.8 337.073 268.937 337.073 271.567C337.073 274.198 334.995 276.335 332.441 276.335C329.883 276.335 327.805 274.198 327.805 271.567C327.805 268.937 329.883 266.8 332.441 266.8ZM244.966 230.901C249.248 233.5 254.239 238.031 256.277 245.597C258.026 252.093 260.172 262.54 252.834 273.033C252.035 274.18 250.469 274.452 249.337 273.639C248.209 272.83 247.94 271.245 248.743 270.102C254.93 261.248 252.913 252.412 251.437 246.933C249.896 241.209 246.231 237.665 242.938 235.549L244.966 230.901ZM292.886 268.592C292.886 268.592 292.091 256.499 302.08 250.194C306.838 247.19 314.62 242.699 324.766 246.162C326.081 246.609 327.504 245.894 327.944 244.566C328.389 243.237 327.683 241.795 326.368 241.348C314.337 237.243 305.072 242.322 299.429 245.883C286.907 253.784 287.881 268.926 287.881 268.926C287.971 270.326 289.168 271.386 290.547 271.295C291.93 271.205 292.976 269.993 292.886 268.592ZM275.109 252.898C277.667 252.898 279.745 255.033 279.745 257.663C279.745 260.294 277.667 262.431 275.109 262.431C272.554 262.431 270.476 260.294 270.476 257.663C270.476 255.033 272.554 252.898 275.109 252.898ZM269.548 193.644C269.548 193.644 280.673 198.12 281.995 209.967C282.622 215.61 283.277 224.656 275.825 232.442C274.861 233.449 274.886 235.058 275.879 236.034C276.875 237.01 278.462 236.984 279.426 235.978C288.265 226.745 287.724 216.088 286.978 209.397C285.32 194.552 271.404 188.925 271.404 188.925C270.118 188.406 268.659 189.042 268.147 190.344C267.635 191.646 268.262 193.125 269.548 193.644ZM301.89 212.747C304.448 212.747 306.523 214.883 306.523 217.513C306.523 220.143 304.448 222.279 301.89 222.279C299.332 222.279 297.258 220.143 297.258 217.513C297.258 214.883 299.332 212.747 301.89 212.747ZM308.44 176.844L311.764 180.42C308.354 190.398 312.506 198.236 315.304 203.062C321.27 213.341 333.229 212.85 333.229 212.85C334.612 212.794 335.78 213.886 335.834 215.287C335.891 216.688 334.813 217.87 333.426 217.925C333.426 217.925 318.453 218.516 310.98 205.636C307.612 199.83 302.84 190.316 307.203 178.243C307.433 177.609 307.888 177.123 308.44 176.844Z" fill="white"/>
<path fill-rule="evenodd" clip-rule="evenodd" d="M260.071 90.5485C260.071 90.5485 283.324 80.8241 329.492 97.3013L325.615 102.399L260.071 90.5485Z" fill="black"/>
<path fill-rule="evenodd" clip-rule="evenodd" d="M348.374 2.07442C348.61 1.7827 342.122 64.9641 342.122 64.9641L258.04 71.5024L261.981 9.71687C261.981 9.71687 348.137 2.36614 348.374 2.07442Z" fill="white"/>
<path fill-rule="evenodd" clip-rule="evenodd" d="M341.143 63.9485L347.302 1.96519C347.363 1.36759 347.89 0.931102 348.481 0.991334C349.072 1.05156 349.502 1.58566 349.445 2.18326L343.189 65.0733C343.139 65.5976 342.723 66.009 342.204 66.0493L258.155 72.5877C257.563 72.6337 257.044 72.1849 257.001 71.5859C256.954 70.9868 257.399 70.4632 257.99 70.4172L341.143 63.9485Z" fill="#69BAC9"/>
<path fill-rule="evenodd" clip-rule="evenodd" d="M263.002 10.6145L262.071 25.3059L259.143 71.5721C259.108 72.1715 258.595 72.6272 258.004 72.5887C257.409 72.5503 256.962 72.0325 256.997 71.4327L259.925 25.1669L260.917 9.54054C260.949 9.00318 261.365 8.57176 261.895 8.52568L348.28 0.989891C348.872 0.938368 349.395 1.38248 349.445 1.9808C349.495 2.57948 349.058 3.10741 348.467 3.15894L263.002 10.6145Z" fill="#69BAC9"/>
<path fill-rule="evenodd" clip-rule="evenodd" d="M390.25 43.3041L331.728 7.11024L309.607 47.9263L366.617 79.5825L390.25 43.3041Z" fill="white"/>
<path fill-rule="evenodd" clip-rule="evenodd" d="M366.119 77.6932L389.357 42.6967C389.687 42.1981 390.357 42.0653 390.848 42.4006C391.342 42.7359 391.471 43.4129 391.142 43.9115L367.355 79.7298C367.047 80.1956 366.438 80.3469 365.951 80.0788L309.031 48.7699C308.511 48.4832 308.318 47.8218 308.601 47.2938C308.884 46.7659 309.536 46.5703 310.059 46.857L366.119 77.6932Z" fill="#69BAC9"/>
<path fill-rule="evenodd" clip-rule="evenodd" d="M332.129 8.63233L310.485 48.3395C310.199 48.8656 309.543 49.0569 309.027 48.7666C308.508 48.4763 308.318 47.8134 308.604 47.2877L330.789 6.58448C330.929 6.32432 331.169 6.13419 331.452 6.05836C331.739 5.98216 332.04 6.0268 332.29 6.18137L390.808 42.3748C391.314 42.688 391.475 43.3585 391.167 43.8712C390.855 44.3839 390.196 44.5461 389.687 44.2329L332.129 8.63233Z" fill="#69BAC9"/>
<path fill-rule="evenodd" clip-rule="evenodd" d="M208.905 52.3493L275.083 17.5825L301.374 64.8973L232.115 100.374L208.905 52.3493Z" fill="white"/>
<path fill-rule="evenodd" clip-rule="evenodd" d="M300.053 65.2054L274.145 18.1122C273.855 17.588 274.044 16.9236 274.562 16.6312C275.079 16.3392 275.735 16.5274 276.022 17.0532L302.481 65.1453C302.625 65.4054 302.657 65.7135 302.567 65.9991C302.481 66.2831 302.28 66.5198 302.017 66.6514L231.716 101.798C231.183 102.064 230.538 101.843 230.275 101.305C230.012 100.766 230.23 100.113 230.763 99.8465L300.053 65.2054Z" fill="#69BAC9"/>
<path fill-rule="evenodd" clip-rule="evenodd" d="M210.314 52.8347L232.213 100.362C232.466 100.905 232.233 101.554 231.695 101.808C231.157 102.062 230.518 101.826 230.265 101.283L207.929 52.81C207.686 52.2807 207.898 51.6514 208.409 51.3828L274.588 16.6165C275.117 16.3394 275.765 16.548 276.038 17.0811C276.311 17.6146 276.107 18.2715 275.579 18.5489L210.314 52.8347Z" fill="#69BAC9"/>
<path d="M339.643 65.1846L333.18 61.3821L309.093 103.366L315.555 107.169L339.643 65.1846Z" fill="#69BAC9"/>
<path d="M269.324 82.0814L262.754 85.4647L284.487 128.746L291.057 125.363L269.324 82.0814Z" fill="#69BAC9"/>
<path d="M303.691 68.7022L296.727 68.7515L297.062 117.307L304.026 117.258L303.691 68.7022Z" fill="#69BAC9"/>
<path fill-rule="evenodd" clip-rule="evenodd" d="M327.805 99.7555L260.071 90.5485C260.071 90.5485 216.988 116.018 222.882 147.435C228.134 175.442 264.496 181.34 264.496 181.34L327.805 99.7555Z" fill="#3768BE"/>
<path fill-rule="evenodd" clip-rule="evenodd" d="M233.332 95.9251C233.573 97.1817 234.584 97.9557 235.931 98.3329C237.553 98.7871 239.666 98.6695 240.772 98.5785C247.343 98.0367 260.953 92.2583 260.953 92.2583C261.372 92.0799 261.567 91.5901 261.393 91.1655C261.215 90.7409 260.734 90.5414 260.315 90.7198C260.315 90.7198 247.047 96.3863 240.636 96.915C239.666 96.9953 237.8 97.1246 236.37 96.7242C235.683 96.5318 235.073 96.2486 234.951 95.6073C234.863 95.1552 234.431 94.8592 233.984 94.9469C233.538 95.0346 233.245 95.4729 233.332 95.9251Z" fill="#3768BE"/>
<path fill-rule="evenodd" clip-rule="evenodd" d="M260.737 90.661C254.019 89.799 246.419 89.0936 239.729 90.7594C238.62 91.0355 236.458 91.6553 235.007 92.6617C233.796 93.5018 233.081 94.616 233.332 95.9251C233.42 96.3772 233.852 96.6732 234.298 96.5855C234.745 96.4978 235.038 96.0594 234.951 95.6073C234.825 94.9449 235.327 94.4635 235.938 94.0386C237.221 93.1488 239.143 92.6241 240.123 92.3802C246.621 90.7621 254.005 91.4796 260.528 92.317C260.981 92.3748 261.393 92.051 261.452 91.5941C261.508 91.137 261.187 90.7191 260.737 90.661Z" fill="#3768BE"/>
<path fill-rule="evenodd" clip-rule="evenodd" d="M259.56 90.8311C259.595 90.7802 259.641 90.7325 259.69 90.6898C260.034 90.3915 260.557 90.4342 260.852 90.7852C261.038 91.0065 261.213 91.393 260.876 91.8584C260.827 91.9301 260.718 92.0442 260.56 92.1636C260.262 92.3895 259.662 92.7466 259.518 92.833C258.209 93.6312 256.889 94.409 255.562 95.1785C251.989 97.2521 248.422 99.3444 244.877 101.471C234.589 107.645 224.241 113.971 214.742 121.372C214.381 121.652 213.861 121.584 213.584 121.219C213.306 120.854 213.377 120.329 213.735 120.049C223.289 112.607 233.69 106.244 244.034 100.035C247.587 97.9044 251.16 95.8078 254.744 93.7302C256.057 92.9668 257.37 92.1951 258.668 91.403C258.781 91.3356 259.374 90.9509 259.56 90.8311ZM259.409 91.4593C259.43 91.6142 259.497 91.7487 259.595 91.8659C259.493 91.7458 259.434 91.6046 259.409 91.4593Z" fill="#3768BE"/>
<path fill-rule="evenodd" clip-rule="evenodd" d="M260.4 90.8977C257.33 92.6207 254.289 95.261 251.33 97.3104C243.115 103 235.149 108.979 227.279 115.147C220.072 120.794 212.127 125.64 205.36 131.843C205.023 132.152 204.995 132.68 205.303 133.021C205.605 133.363 206.13 133.389 206.467 133.08C213.202 126.906 221.115 122.088 228.287 116.467C236.132 110.319 244.073 104.359 252.263 98.6882C255.18 96.6673 258.175 94.0561 261.198 92.3573C261.596 92.1339 261.741 91.6255 261.521 91.2227C261.298 90.8203 260.797 90.6743 260.4 90.8977Z" fill="#3768BE"/>
<path d="M213.569 123.017C214.669 123.017 215.562 122.117 215.562 121.007C215.562 119.897 214.669 118.997 213.569 118.997C212.468 118.997 211.575 119.897 211.575 121.007C211.575 122.117 212.468 123.017 213.569 123.017Z" fill="#3768BE"/>
<path d="M205.683 134.494C206.784 134.494 207.676 133.594 207.676 132.484C207.676 131.374 206.784 130.474 205.683 130.474C204.582 130.474 203.69 131.374 203.69 132.484C203.69 133.594 204.582 134.494 205.683 134.494Z" fill="#3768BE"/>
<path fill-rule="evenodd" clip-rule="evenodd" d="M262.458 94.5978C262.397 94.7306 262.214 95.1181 262.192 95.1613C261.694 96.1144 261.254 97.101 260.842 98.0945C259.699 100.861 258.717 103.862 258.885 106.9C258.911 107.41 258.957 108.028 259.097 108.609C259.208 109.076 259.373 109.527 259.695 109.824C260.032 110.134 260.057 110.662 259.749 111.003C259.444 111.343 258.921 111.368 258.585 111.058C257.56 110.112 257.309 108.294 257.237 106.994C257.058 103.704 258.083 100.445 259.323 97.4486C259.752 96.4098 260.215 95.3786 260.734 94.3822C260.759 94.3344 260.878 94.0415 260.989 93.8296C261.089 93.6395 261.204 93.4908 261.279 93.4164C261.472 93.2288 261.676 93.1769 261.831 93.1671C262.282 93.137 262.676 93.486 262.705 93.9458C262.723 94.199 262.626 94.4334 262.458 94.5978Z" fill="white"/>
<path fill-rule="evenodd" clip-rule="evenodd" d="M259.781 109.887C259.813 109.863 259.882 109.815 259.921 109.775C259.993 109.703 260.061 109.619 260.125 109.525C260.766 108.614 261.196 107.026 261.307 106.582C262.379 102.355 262.114 97.7436 261.411 93.477C261.336 93.0227 261.641 92.5924 262.089 92.5166C262.54 92.4407 262.963 92.7481 263.038 93.2027C263.776 97.6939 264.03 102.548 262.902 106.997C262.744 107.632 261.985 110.147 260.978 111.06C260.63 111.377 260.243 111.546 259.856 111.566C259.455 111.586 259.022 111.459 258.585 111.058C258.248 110.747 258.226 110.219 258.531 109.878C258.839 109.538 259.358 109.514 259.695 109.824C259.72 109.846 259.756 109.872 259.781 109.887Z" fill="white"/>
<path fill-rule="evenodd" clip-rule="evenodd" d="M265.41 127.975L282.131 179.311L302.306 172.63L320.399 192.063L329.051 185.381L340.875 199.541L384.589 159.179C384.589 159.179 367.011 130.974 354.59 111.037C347.704 99.9859 333.784 95.8314 322.083 101.334C299.228 112.076 265.41 127.975 265.41 127.975Z" fill="#FFD274"/>
<path fill-rule="evenodd" clip-rule="evenodd" d="M352.021 143.092C351.44 143.745 350.86 144.403 350.186 144.955C347.843 146.877 345.514 148.835 342.989 150.501C333.967 156.453 326.053 160.865 316.555 165.59C312.019 167.848 307.415 169.971 302.836 172.139C302.657 172.223 302.302 172.465 302.302 172.465L304.405 175.069C304.405 175.069 304.86 174.854 305.086 174.747C309.676 172.566 314.287 170.423 318.833 168.145C328.45 163.326 336.446 158.816 345.55 152.712C348.832 150.511 352.408 148.361 354.643 145.078C355.844 143.319 353.293 141.367 352.021 143.092Z" fill="#E64B4D"/>
<path fill-rule="evenodd" clip-rule="evenodd" d="M356.679 125.968C356.679 125.968 361.712 153.243 329.807 184.573C329.592 184.784 329.159 185.206 329.159 185.206L331.187 187.831C331.187 187.831 331.692 187.34 331.943 187.095C365.521 154.117 358.957 123.523 358.957 123.523C358.771 122.627 357.9 122.054 357.015 122.245C356.13 122.435 356.492 125.073 356.679 125.968Z" fill="#E64B4D"/>
<path fill-rule="evenodd" clip-rule="evenodd" d="M355.564 112.539C355.564 112.539 359.638 136.222 344.282 153.99C336.428 163.078 323.709 170.91 302.306 172.63L309.013 180.244C309.013 180.244 368.591 169.65 358.051 115.901C357.553 113.348 356.65 112.918 355.564 112.539Z" fill="#3768BE"/>
<path fill-rule="evenodd" clip-rule="evenodd" d="M340.825 199.497C340.825 199.497 349.62 208.82 358.094 217.802C367.524 227.793 381.833 231.302 394.732 226.785V226.785C411.714 220.836 424.286 206.183 427.729 188.323C435.665 147.513 442.917 108.617 447.865 65.4042C448.04 63.8574 447.195 62.3759 445.783 61.7584C444.268 61.1064 442.308 61.0088 440.842 63.5827C440.842 63.5827 437.428 55.912 432.004 60.5015C432.004 60.5015 428.009 53.8387 423.011 58.7882C423.011 58.7882 417.432 51.4491 413.334 60.4917C413.334 60.4917 404.814 57.0393 401.603 74.342L384.392 159.075L340.825 199.497Z" fill="#A62B2A"/>
<path fill-rule="evenodd" clip-rule="evenodd" d="M375.055 200.27L384.448 158.98L381.685 161.619L372.694 199.815C372.572 200.474 373 201.112 373.651 201.238C374.301 201.364 374.932 200.93 375.055 200.27Z" fill="black"/>
<path d="M420.13 79.9431C419.948 80.0854 420.528 80.9729 420.589 81.0995C421.202 82.3611 421.8 83.6328 422.384 84.9082C422.878 85.9891 423.337 87.0874 423.738 88.2068C424.032 89.0152 424.301 89.8319 424.555 90.6537C424.777 91.3747 424.978 92.1022 425.153 92.8359C425.687 95.0564 426.579 100.34 423.502 101.38C422.484 101.723 421.714 100.95 421.46 100.007C421.055 98.5096 421.664 96.8859 422.481 95.6446C424.623 92.3896 428.955 90.9484 432.638 90.7597" stroke="black" stroke-width="0.00219619" stroke-miterlimit="2.28659" stroke-linecap="round" stroke-linejoin="round"/>
<path fill-rule="evenodd" clip-rule="evenodd" d="M413.334 60.5048C413.334 60.5048 419.707 64.0479 423.756 68.3744C424.706 69.4096 424.996 70.9114 424.498 72.2423C424 73.5735 422.799 74.5042 421.402 74.6439C421.047 74.6718 420.646 74.7027 420.22 74.7291C417.909 74.8754 413.574 74.3612 408.977 73.6428C408.393 73.551 407.841 73.9588 407.752 74.5524C407.662 75.146 408.063 75.7026 408.651 75.7944C413.434 76.5422 417.952 77.0542 420.356 76.9022C420.793 76.8746 421.202 76.843 421.592 76.8122C421.599 76.8118 421.606 76.8111 421.614 76.8104C423.824 76.5894 425.723 75.1181 426.508 73.0133C427.296 70.9085 426.837 68.5337 425.322 66.8849C422.198 63.5432 416.942 60.5531 414.391 59.204C414.272 59.142 414.115 59.0364 414.115 59.0364C413.789 59.5349 413.334 60.5048 413.334 60.5048Z" fill="#DE735A"/>
<path fill-rule="evenodd" clip-rule="evenodd" d="M411.428 75.4958C411.428 75.4958 410.965 78.2059 411.528 80.6006C411.965 82.4565 412.997 84.0925 415.01 84.5802C416.067 84.836 419.779 85.2747 421.52 76.3227C421.635 75.7331 421.255 75.1605 420.675 75.0444C420.094 74.9283 419.528 75.3126 419.414 75.9022C418.858 78.7476 418.142 80.4551 417.393 81.4532C416.608 82.5011 415.863 82.5483 415.512 82.4627C414.358 82.1837 413.871 81.1586 413.62 80.0959C413.155 78.1133 413.545 75.8688 413.545 75.8688C413.645 75.277 413.255 74.7128 412.667 74.6101C412.083 74.5071 411.528 74.904 411.428 75.4958Z" fill="#DE735A"/>
<path fill-rule="evenodd" clip-rule="evenodd" d="M423.659 65.3273C423.899 63.2711 424.118 60.9892 424.308 58.4569C424.326 58.2606 424.286 58.0723 424.207 57.9062C424.197 57.8826 424.193 57.8227 424.172 57.8361C423.677 58.1322 423.014 58.7868 423.014 58.7868C423.018 58.7741 422.262 57.9214 422.251 57.9486C422.205 58.0571 422.176 58.1685 422.165 58.2922C421.979 60.7904 421.764 63.0414 421.524 65.07C421.456 65.6669 421.875 66.2086 422.466 66.2797C423.054 66.3505 423.588 65.9238 423.659 65.3273Z" fill="#DE735A"/>
<path fill-rule="evenodd" clip-rule="evenodd" d="M420.349 75.8013C420.216 78.7251 420.363 81.3154 420.969 83.0156C421.503 84.5134 422.402 85.4111 423.606 85.6404C424.283 85.7703 425.333 86.021 426.54 85.4702C427.629 84.9717 428.937 83.7616 430.105 80.7907C431.473 77.3165 432.767 71.194 433.541 60.4874C433.566 60.1619 433.541 59.5081 433.541 59.5081C433.053 59.6775 432.541 60.0531 432.018 60.4859C431.835 60.2007 431.645 59.9417 431.438 59.7229C431.438 59.7229 431.405 60.2377 431.398 60.3285C430.649 70.6904 429.431 76.6221 428.109 79.9845C427.26 82.1423 426.447 83.1238 425.655 83.4859C424.978 83.7957 424.383 83.5741 424.003 83.5011C423.487 83.4032 423.219 82.9155 422.989 82.2765C422.456 80.7748 422.38 78.4823 422.495 75.9C422.524 75.2999 422.065 74.7905 421.47 74.7632C420.879 74.736 420.374 75.2012 420.349 75.8013Z" fill="#DE735A"/>
<path fill-rule="evenodd" clip-rule="evenodd" d="M433.695 86.9855C431.477 86.857 430.18 84.8973 429.757 81.843C428.944 75.9635 431.158 65.7975 431.187 63.4013C431.194 62.8008 431.681 62.3194 432.276 62.3266C432.871 62.3342 433.344 62.828 433.337 63.4289C433.308 65.7826 431.087 75.7651 431.885 81.5407C432.004 82.4068 432.19 83.1677 432.487 83.7649C432.803 84.3977 433.247 84.8164 433.935 84.8153C434.103 84.8153 434.268 84.8552 434.419 84.9325C434.451 84.9296 435.189 84.8502 435.909 83.7275C437.389 81.4192 439.123 74.4585 439.857 62.1887C439.861 62.1151 439.882 61.9435 439.882 61.9435C440.212 62.372 440.524 62.9188 440.85 63.5835C441.183 62.9946 441.552 62.458 442.046 62.1114C442.046 62.1114 442.032 62.34 442.025 62.454C441.247 75.3137 439.266 82.4881 437.711 84.9136C436.697 86.4927 435.69 86.9474 434.992 87.0769C434.419 87.1832 433.971 87.0856 433.695 86.9855Z" fill="#DE735A"/>
<path fill-rule="evenodd" clip-rule="evenodd" d="M441.674 87.3163C440.936 87.1763 440.316 86.71 439.85 85.914C439.323 85.017 438.99 83.6005 438.843 81.8676C438.449 77.2153 439.298 70.058 439.646 65.816C439.743 64.6118 441.889 64.5472 441.788 65.7681C441.437 69.993 440.595 77.0727 440.986 81.6811C441.083 82.8204 441.247 83.7936 441.545 84.4946C441.695 84.8491 441.817 85.1502 442.104 85.1818C442.222 85.1948 442.333 85.2268 442.44 85.2772C442.469 85.2736 442.627 85.2507 442.774 85.1531C443.06 84.9644 443.368 84.6168 443.709 84.045C444.622 82.512 446.711 74.8195 446.711 74.8195C446.69 75.7367 445.504 84.5417 445.332 85.3995C445.221 85.9564 444.837 86.1999 444.565 86.4706C443.77 87.2605 443.049 87.4339 442.551 87.4542C442.165 87.4702 441.864 87.39 441.674 87.3163Z" fill="#DE735A"/>
<path fill-rule="evenodd" clip-rule="evenodd" d="M110.512 198.858L265.41 127.975L282.131 179.311C282.131 179.311 177.893 223.689 137.61 229.806C137.61 229.806 92.0433 233.082 56.7422 221.97C56.7422 221.97 52.1601 219.978 54.8637 217.683C54.8637 217.683 58.4168 215.057 62.0161 214.555C62.0161 214.555 55.2227 210.877 52.58 207.75C52.2891 207.367 52.255 206.844 52.4937 206.425C53.1052 205.374 54.8401 203.8 59.6428 204.966C59.6428 204.966 56.5723 202.777 54.9232 199.85C54.7559 199.543 54.7541 199.171 54.9189 198.863C55.5602 197.657 58.2548 195.38 69.463 199.309C69.463 199.309 65.8597 195.96 64.5566 192.413C64.3166 191.757 64.4227 191.022 64.8375 190.463C65.2528 189.904 65.9203 189.597 66.6089 189.649C69.9205 190.344 76.7117 192.367 87.7525 198.402C87.7525 198.402 85.0597 188.996 96.1073 191.491C96.1073 191.491 101.828 193.304 110.512 198.858Z" fill="#A62B2A"/>
<path fill-rule="evenodd" clip-rule="evenodd" d="M87.4752 195.757C87.4419 196.622 87.5107 197.496 87.7016 198.38C87.7016 198.38 87.8636 198.458 87.9474 198.498C90.55 199.718 95.0185 200.912 101.611 199.748C103.957 199.333 107.122 199.002 110.081 198.868C110.237 198.862 110.547 198.849 110.547 198.849L107.297 196.895C107.297 196.895 106.981 196.93 106.836 196.941C104.81 197.096 102.855 197.318 101.241 197.603C94.0436 198.875 89.6887 197.082 87.7744 195.942C87.6669 195.878 87.4752 195.757 87.4752 195.757Z" fill="#DE735A"/>
<path fill-rule="evenodd" clip-rule="evenodd" d="M69.4413 199.318L65.526 198.081C65.526 198.081 65.8058 198.451 65.9667 198.652C68.3783 201.669 73.9969 207.083 86.124 212.69C86.6639 212.939 87.302 212.698 87.5482 212.151C87.7947 211.605 87.5564 210.958 87.0168 210.709C78.092 206.583 72.8626 202.615 69.8906 199.739C69.6542 199.511 69.4413 199.318 69.4413 199.318Z" fill="#DE735A"/>
<path fill-rule="evenodd" clip-rule="evenodd" d="M59.5865 204.945C58.301 204.633 56.9256 204.369 55.6075 204.606L55.8396 204.799C55.8396 204.799 68.8614 215.479 82.6993 220.054C83.2632 220.241 83.8705 219.929 84.055 219.358C84.2396 218.787 83.9314 218.172 83.3675 217.985C72.7401 214.465 59.9018 205.178 59.9018 205.178L59.5865 204.945Z" fill="#DE735A"/>
<path fill-rule="evenodd" clip-rule="evenodd" d="M62.059 214.534C61.0727 214.731 60.0269 214.99 59.0602 215.367C59.0602 215.367 59.1752 215.432 59.2372 215.467C62.4621 217.284 73.744 223.45 86.1098 227.988C86.3301 228.069 86.7712 228.229 86.7712 228.229L97.339 229.348C97.339 229.348 96.8722 229.129 96.6898 229.082C82.9662 225.541 68.2244 217.929 62.2002 214.633C62.1293 214.595 62.059 214.534 62.059 214.534Z" fill="#DE735A"/>
<path fill-rule="evenodd" clip-rule="evenodd" d="M329.545 92.2085C329.545 92.2085 329.588 85.8908 329.631 79.5342C329.685 71.4465 336.098 64.8777 344.081 64.7275C352.909 64.5867 363.116 66.5896 366.305 75.8496C366.32 76.502 361.694 78.7215 352.54 74.8329C352.54 74.8329 351.777 79.6851 344.511 83.6067C344.511 83.6067 342.963 80.1147 338.854 82.4569C337.564 83.1916 336.847 84.9742 338.348 88.4716C338.348 88.4716 338.047 90.4328 329.545 92.2085Z" fill="black"/>
<path fill-rule="evenodd" clip-rule="evenodd" d="M329.477 99.5023L329.699 92.0003C329.699 92.0003 335.886 90.9687 338.434 88.6876C338.434 88.6876 335.904 83.7606 339.251 81.9794C341.024 81.036 343.647 81.5534 344.528 83.548C344.528 83.548 352.077 79.1257 352.41 74.6838C352.493 75.0946 363.105 78.3274 366.312 75.9291C365.875 84.274 365.932 98.1638 361.697 102.211C360.013 103.822 357.982 104.467 355.162 104.491L355.33 112.432C355.33 112.432 347.054 96.8968 329.477 99.5023Z" fill="#A62B2A"/>
<path fill-rule="evenodd" clip-rule="evenodd" d="M355.124 104.51C355.124 104.51 348.961 102.356 345.145 99.4497C345.034 99.3463 344.862 99.3448 344.748 99.4464C344.633 99.548 344.612 99.7204 344.701 99.8463C347.567 103.813 351.509 106.881 355.274 110.103L355.124 104.51Z" fill="black"/>
<path fill-rule="evenodd" clip-rule="evenodd" d="M335.983 87.8306C335.983 87.8306 337.581 90.5511 338.749 91.6324C339.086 91.943 339.609 91.919 339.914 91.5791C340.222 91.2387 340.197 90.7104 339.864 90.3998C338.814 89.4321 337.402 86.9826 337.402 86.9826C337.173 86.5857 336.664 86.4536 336.274 86.6876C335.883 86.9217 335.751 87.434 335.983 87.8306Z" fill="black"/>
<path fill-rule="evenodd" clip-rule="evenodd" d="M358.223 90.743C357.327 90.7793 356.188 91.3061 355.872 92.3885C355.683 93.0412 355.768 93.9599 356.578 95.1526C356.876 95.5869 357.409 96.1718 358.044 96.5375C358.538 96.8224 359.086 96.9744 359.638 96.8996C360.225 96.8205 360.842 96.4943 361.383 95.7005C361.608 95.371 361.526 94.9186 361.204 94.6907C360.878 94.4628 360.43 94.5452 360.204 94.8743C359.96 95.2331 359.713 95.4254 359.452 95.4613C359.129 95.5045 358.825 95.3413 358.556 95.1475C358.212 94.9015 357.929 94.5789 357.761 94.3297C357.302 93.6541 357.141 93.1675 357.248 92.7978C357.377 92.3464 357.904 92.2085 358.28 92.1933C358.674 92.1773 358.982 91.8391 358.964 91.4389C358.95 91.0387 358.617 90.727 358.223 90.743Z" fill="#DE735A"/>
<path fill-rule="evenodd" clip-rule="evenodd" d="M361.383 95.7005C361.659 95.2974 361.827 94.6609 361.788 93.9636C361.737 93.0518 361.34 92.046 360.505 91.4038C359.953 90.9796 359.208 90.7031 358.223 90.743C357.825 90.759 357.517 91.0972 357.535 91.4974C357.549 91.8976 357.882 92.2093 358.28 92.1933C358.864 92.1694 359.312 92.3083 359.638 92.5597C360.122 92.9302 360.329 93.5206 360.358 94.0463C360.376 94.3754 360.337 94.6842 360.204 94.8743C359.982 95.2038 360.061 95.6562 360.387 95.8841C360.713 96.112 361.161 96.0296 361.383 95.7005Z" fill="#DE735A"/>
</svg>
